<mxfile host="app.diagrams.net" modified="2024-07-03T11:53:09.620Z" agent="Mozilla/5.0 (Macintosh; Intel Mac OS X 10_15_7) AppleWebKit/537.36 (KHTML, like Gecko) Chrome/126.0.0.0 Safari/537.36" etag="QoLocxdpg6cqnccjsc-q" version="24.6.4" type="onedrive" pages="2">
  <diagram name="Ex_01" id="UTqnzTdZFfA5hEWAuuq_">
    <mxGraphModel grid="1" page="1" gridSize="10" guides="1" tooltips="1" connect="1" arrows="1" fold="1" pageScale="1" pageWidth="827" pageHeight="1169" math="0" shadow="0">
      <root>
        <mxCell id="0" />
        <mxCell id="1" parent="0" />
        <mxCell id="DDdQNpq2Jc3JpXYJOsHe-1" value="&lt;span dir=&quot;ltr&quot; class=&quot;ui-provider ne rp rq rr rs rt ru rv rw rx ry rz sa sb sc sd se sf sg sh si sj sk sl sm sn so sp sq sr ss st su sv sw&quot;&gt;Faça um Diagrama E-R para as encomendas online da Pizzaria Ital.&amp;nbsp;&lt;/span&gt;&lt;div&gt;&lt;span dir=&quot;ltr&quot; class=&quot;ui-provider ne rp rq rr rs rt ru rv rw rx ry rz sa sb sc sd se sf sg sh si sj sk sl sm sn so sp sq sr ss st su sv sw&quot;&gt;A pizzaria pretende guardar os dados das&amp;nbsp;&lt;span style=&quot;background-color: initial;&quot;&gt;encomendas feitas por cada cliente.&amp;nbsp;&lt;/span&gt;&lt;/span&gt;&lt;/div&gt;&lt;div&gt;&lt;span dir=&quot;ltr&quot; class=&quot;ui-provider ne rp rq rr rs rt ru rv rw rx ry rz sa sb sc sd se sf sg sh si sj sk sl sm sn so sp sq sr ss st su sv sw&quot;&gt;&lt;span style=&quot;background-color: initial;&quot;&gt;Cada encomenda possui vários produtos, cada produto tem uma categoria&amp;nbsp;&lt;/span&gt;&lt;span style=&quot;background-color: initial;&quot;&gt;(exemplo: pizza, refrigerante, etc…)&amp;nbsp;&lt;/span&gt;&lt;/span&gt;&lt;/div&gt;&lt;div&gt;&lt;span dir=&quot;ltr&quot; class=&quot;ui-provider ne rp rq rr rs rt ru rv rw rx ry rz sa sb sc sd se sf sg sh si sj sk sl sm sn so sp sq sr ss st su sv sw&quot;&gt;&lt;span style=&quot;background-color: initial;&quot;&gt;e cada produto pode estar em várias encomendas. Pretende ainda saber que&amp;nbsp;&lt;/span&gt;entregador entregou&amp;nbsp;&lt;/span&gt;&lt;/div&gt;&lt;div&gt;&lt;span dir=&quot;ltr&quot; class=&quot;ui-provider ne rp rq rr rs rt ru rv rw rx ry rz sa sb sc sd se sf sg sh si sj sk sl sm sn so sp sq sr ss st su sv sw&quot;&gt;cada encomenda e o pagamento associado a mesma.&lt;/span&gt;&lt;/div&gt;" style="text;html=1;align=left;verticalAlign=middle;resizable=0;points=[];autosize=1;strokeColor=none;fillColor=none;" vertex="1" parent="1">
          <mxGeometry x="-2430" y="40" width="620" height="90" as="geometry" />
        </mxCell>
        <mxCell id="DDdQNpq2Jc3JpXYJOsHe-2" value="Cliente" style="whiteSpace=wrap;html=1;align=center;" vertex="1" parent="1">
          <mxGeometry x="-2154" y="136" width="110" height="40" as="geometry" />
        </mxCell>
        <mxCell id="DDdQNpq2Jc3JpXYJOsHe-15" value="" style="edgeStyle=orthogonalEdgeStyle;rounded=0;orthogonalLoop=1;jettySize=auto;html=1;startArrow=ERmany;startFill=0;endArrow=none;endFill=0;" edge="1" parent="1" source="DDdQNpq2Jc3JpXYJOsHe-3" target="DDdQNpq2Jc3JpXYJOsHe-7">
          <mxGeometry relative="1" as="geometry" />
        </mxCell>
        <mxCell id="DDdQNpq2Jc3JpXYJOsHe-3" value="Encomenda" style="whiteSpace=wrap;html=1;align=center;" vertex="1" parent="1">
          <mxGeometry x="-2150" y="301" width="100" height="40" as="geometry" />
        </mxCell>
        <mxCell id="DDdQNpq2Jc3JpXYJOsHe-4" value="Faz" style="shape=rhombus;perimeter=rhombusPerimeter;whiteSpace=wrap;html=1;align=center;" vertex="1" parent="1">
          <mxGeometry x="-2160" y="206" width="120" height="60" as="geometry" />
        </mxCell>
        <mxCell id="DDdQNpq2Jc3JpXYJOsHe-6" value="Produto" style="whiteSpace=wrap;html=1;align=center;" vertex="1" parent="1">
          <mxGeometry x="-2150" y="471" width="100" height="40" as="geometry" />
        </mxCell>
        <mxCell id="DDdQNpq2Jc3JpXYJOsHe-14" value="" style="edgeStyle=orthogonalEdgeStyle;rounded=0;orthogonalLoop=1;jettySize=auto;html=1;endArrow=ERmany;endFill=0;" edge="1" parent="1" source="DDdQNpq2Jc3JpXYJOsHe-7" target="DDdQNpq2Jc3JpXYJOsHe-6">
          <mxGeometry relative="1" as="geometry">
            <Array as="points">
              <mxPoint x="-2100" y="451" />
              <mxPoint x="-2100" y="451" />
            </Array>
          </mxGeometry>
        </mxCell>
        <mxCell id="DDdQNpq2Jc3JpXYJOsHe-7" value="Tem" style="shape=rhombus;perimeter=rhombusPerimeter;whiteSpace=wrap;html=1;align=center;" vertex="1" parent="1">
          <mxGeometry x="-2160" y="371" width="120" height="60" as="geometry" />
        </mxCell>
        <mxCell id="DDdQNpq2Jc3JpXYJOsHe-12" value="" style="edgeStyle=orthogonalEdgeStyle;rounded=0;orthogonalLoop=1;jettySize=auto;html=1;endArrow=none;endFill=0;" edge="1" parent="1" source="DDdQNpq2Jc3JpXYJOsHe-8" target="DDdQNpq2Jc3JpXYJOsHe-6">
          <mxGeometry relative="1" as="geometry">
            <Array as="points">
              <mxPoint x="-2100" y="561" />
              <mxPoint x="-2100" y="561" />
            </Array>
          </mxGeometry>
        </mxCell>
        <mxCell id="DDdQNpq2Jc3JpXYJOsHe-8" value="Tipo/Categoria" style="ellipse;whiteSpace=wrap;html=1;align=center;" vertex="1" parent="1">
          <mxGeometry x="-2149" y="532" width="100" height="40" as="geometry" />
        </mxCell>
        <mxCell id="DDdQNpq2Jc3JpXYJOsHe-13" value="" style="rounded=0;orthogonalLoop=1;jettySize=auto;html=1;endArrow=none;endFill=0;entryX=1;entryY=1;entryDx=0;entryDy=0;" edge="1" parent="1" source="DDdQNpq2Jc3JpXYJOsHe-9" target="DDdQNpq2Jc3JpXYJOsHe-8">
          <mxGeometry relative="1" as="geometry">
            <Array as="points" />
          </mxGeometry>
        </mxCell>
        <mxCell id="DDdQNpq2Jc3JpXYJOsHe-9" value="Refrigerante" style="ellipse;whiteSpace=wrap;html=1;align=center;" vertex="1" parent="1">
          <mxGeometry x="-2011" y="572" width="100" height="40" as="geometry" />
        </mxCell>
        <mxCell id="DDdQNpq2Jc3JpXYJOsHe-16" value="" style="edgeStyle=orthogonalEdgeStyle;rounded=0;orthogonalLoop=1;jettySize=auto;html=1;startArrow=ERone;startFill=0;endArrow=none;endFill=0;" edge="1" parent="1" source="DDdQNpq2Jc3JpXYJOsHe-2" target="DDdQNpq2Jc3JpXYJOsHe-4">
          <mxGeometry relative="1" as="geometry">
            <mxPoint x="-2095.83" y="176" as="sourcePoint" />
            <mxPoint x="-2095.83" y="226" as="targetPoint" />
            <Array as="points">
              <mxPoint x="-2100" y="206" />
              <mxPoint x="-2100" y="206" />
            </Array>
          </mxGeometry>
        </mxCell>
        <mxCell id="DDdQNpq2Jc3JpXYJOsHe-17" value="" style="rounded=0;orthogonalLoop=1;jettySize=auto;html=1;endArrow=ERmany;endFill=0;entryX=0.5;entryY=0;entryDx=0;entryDy=0;exitX=0.5;exitY=1;exitDx=0;exitDy=0;edgeStyle=orthogonalEdgeStyle;" edge="1" parent="1" source="DDdQNpq2Jc3JpXYJOsHe-4" target="DDdQNpq2Jc3JpXYJOsHe-3">
          <mxGeometry relative="1" as="geometry">
            <mxPoint x="-2050" y="251" as="sourcePoint" />
            <mxPoint x="-2095.59" y="291" as="targetPoint" />
            <Array as="points">
              <mxPoint x="-2100" y="281" />
              <mxPoint x="-2100" y="281" />
            </Array>
          </mxGeometry>
        </mxCell>
        <mxCell id="DDdQNpq2Jc3JpXYJOsHe-18" value="Entregador" style="whiteSpace=wrap;html=1;align=center;" vertex="1" parent="1">
          <mxGeometry x="-1833" y="301" width="100" height="40" as="geometry" />
        </mxCell>
        <mxCell id="DDdQNpq2Jc3JpXYJOsHe-19" value="Entrega" style="shape=rhombus;perimeter=rhombusPerimeter;whiteSpace=wrap;html=1;align=center;" vertex="1" parent="1">
          <mxGeometry x="-1999" y="291" width="120" height="60" as="geometry" />
        </mxCell>
        <mxCell id="DDdQNpq2Jc3JpXYJOsHe-20" value="" style="edgeStyle=orthogonalEdgeStyle;rounded=0;orthogonalLoop=1;jettySize=auto;html=1;startArrow=ERone;startFill=0;endArrow=none;endFill=0;exitX=0;exitY=0.5;exitDx=0;exitDy=0;entryX=1;entryY=0.5;entryDx=0;entryDy=0;" edge="1" parent="1" source="DDdQNpq2Jc3JpXYJOsHe-18" target="DDdQNpq2Jc3JpXYJOsHe-19">
          <mxGeometry relative="1" as="geometry">
            <mxPoint x="-1849" y="231" as="sourcePoint" />
            <mxPoint x="-1849" y="291" as="targetPoint" />
            <Array as="points" />
          </mxGeometry>
        </mxCell>
        <mxCell id="DDdQNpq2Jc3JpXYJOsHe-21" value="" style="rounded=0;orthogonalLoop=1;jettySize=auto;html=1;endArrow=ERmany;endFill=0;exitX=0;exitY=0.5;exitDx=0;exitDy=0;edgeStyle=orthogonalEdgeStyle;entryX=1;entryY=0.5;entryDx=0;entryDy=0;" edge="1" parent="1" source="DDdQNpq2Jc3JpXYJOsHe-19" target="DDdQNpq2Jc3JpXYJOsHe-3">
          <mxGeometry relative="1" as="geometry">
            <mxPoint x="-2099" y="261" as="sourcePoint" />
            <mxPoint x="-1949" y="391" as="targetPoint" />
            <Array as="points">
              <mxPoint x="-2009" y="321" />
              <mxPoint x="-2009" y="321" />
            </Array>
          </mxGeometry>
        </mxCell>
        <mxCell id="DDdQNpq2Jc3JpXYJOsHe-22" value="Pagamento" style="whiteSpace=wrap;html=1;align=center;" vertex="1" parent="1">
          <mxGeometry x="-2430" y="301" width="100" height="40" as="geometry" />
        </mxCell>
        <mxCell id="DDdQNpq2Jc3JpXYJOsHe-27" value="Tem" style="shape=rhombus;perimeter=rhombusPerimeter;whiteSpace=wrap;html=1;align=center;" vertex="1" parent="1">
          <mxGeometry x="-2305" y="291" width="120" height="60" as="geometry" />
        </mxCell>
        <mxCell id="DDdQNpq2Jc3JpXYJOsHe-28" value="" style="rounded=0;orthogonalLoop=1;jettySize=auto;html=1;startArrow=ERone;startFill=0;endArrow=none;endFill=0;exitX=1;exitY=0.5;exitDx=0;exitDy=0;entryX=0;entryY=0.5;entryDx=0;entryDy=0;" edge="1" parent="1" source="DDdQNpq2Jc3JpXYJOsHe-22" target="DDdQNpq2Jc3JpXYJOsHe-27">
          <mxGeometry relative="1" as="geometry">
            <mxPoint x="-2043" y="121" as="sourcePoint" />
            <mxPoint x="-1929" y="121" as="targetPoint" />
          </mxGeometry>
        </mxCell>
        <mxCell id="DDdQNpq2Jc3JpXYJOsHe-29" value="" style="rounded=0;orthogonalLoop=1;jettySize=auto;html=1;startArrow=ERone;startFill=0;endArrow=none;endFill=0;exitX=0;exitY=0.5;exitDx=0;exitDy=0;entryX=1;entryY=0.5;entryDx=0;entryDy=0;" edge="1" parent="1" source="DDdQNpq2Jc3JpXYJOsHe-3" target="DDdQNpq2Jc3JpXYJOsHe-27">
          <mxGeometry relative="1" as="geometry">
            <mxPoint x="-1650" y="141" as="sourcePoint" />
            <mxPoint x="-2176" y="321" as="targetPoint" />
          </mxGeometry>
        </mxCell>
        <mxCell id="xPdTNqOweCAKqyTzC57M-2" value="Pizza" style="ellipse;whiteSpace=wrap;html=1;align=center;" vertex="1" parent="1">
          <mxGeometry x="-2260" y="582" width="100" height="40" as="geometry" />
        </mxCell>
        <mxCell id="xPdTNqOweCAKqyTzC57M-3" value="" style="rounded=0;orthogonalLoop=1;jettySize=auto;html=1;endArrow=none;endFill=0;entryX=0;entryY=1;entryDx=0;entryDy=0;exitX=1;exitY=0;exitDx=0;exitDy=0;" edge="1" parent="1" source="xPdTNqOweCAKqyTzC57M-2" target="DDdQNpq2Jc3JpXYJOsHe-8">
          <mxGeometry relative="1" as="geometry">
            <mxPoint x="-1991" y="590" as="sourcePoint" />
            <mxPoint x="-2054" y="576" as="targetPoint" />
          </mxGeometry>
        </mxCell>
        <mxCell id="IzCcqweRD-dVVf9Xq-Db-1" value="Cliente" style="shape=table;startSize=30;container=1;collapsible=1;childLayout=tableLayout;fixedRows=1;rowLines=0;fontStyle=1;align=center;resizeLast=1;html=1;" vertex="1" parent="1">
          <mxGeometry x="-2400" y="705" width="130" height="180" as="geometry" />
        </mxCell>
        <mxCell id="IzCcqweRD-dVVf9Xq-Db-2" value="" style="shape=tableRow;horizontal=0;startSize=0;swimlaneHead=0;swimlaneBody=0;fillColor=none;collapsible=0;dropTarget=0;points=[[0,0.5],[1,0.5]];portConstraint=eastwest;top=0;left=0;right=0;bottom=1;" vertex="1" parent="IzCcqweRD-dVVf9Xq-Db-1">
          <mxGeometry y="30" width="130" height="30" as="geometry" />
        </mxCell>
        <mxCell id="IzCcqweRD-dVVf9Xq-Db-3" value="PK" style="shape=partialRectangle;connectable=0;fillColor=none;top=0;left=0;bottom=0;right=0;fontStyle=1;overflow=hidden;whiteSpace=wrap;html=1;" vertex="1" parent="IzCcqweRD-dVVf9Xq-Db-2">
          <mxGeometry width="30" height="30" as="geometry">
            <mxRectangle width="30" height="30" as="alternateBounds" />
          </mxGeometry>
        </mxCell>
        <mxCell id="IzCcqweRD-dVVf9Xq-Db-4" value="nif" style="shape=partialRectangle;connectable=0;fillColor=none;top=0;left=0;bottom=0;right=0;align=left;spacingLeft=6;fontStyle=5;overflow=hidden;whiteSpace=wrap;html=1;" vertex="1" parent="IzCcqweRD-dVVf9Xq-Db-2">
          <mxGeometry x="30" width="100" height="30" as="geometry">
            <mxRectangle width="100" height="30" as="alternateBounds" />
          </mxGeometry>
        </mxCell>
        <mxCell id="IzCcqweRD-dVVf9Xq-Db-5" value="" style="shape=tableRow;horizontal=0;startSize=0;swimlaneHead=0;swimlaneBody=0;fillColor=none;collapsible=0;dropTarget=0;points=[[0,0.5],[1,0.5]];portConstraint=eastwest;top=0;left=0;right=0;bottom=0;" vertex="1" parent="IzCcqweRD-dVVf9Xq-Db-1">
          <mxGeometry y="60" width="130" height="30" as="geometry" />
        </mxCell>
        <mxCell id="IzCcqweRD-dVVf9Xq-Db-6" value="" style="shape=partialRectangle;connectable=0;fillColor=none;top=0;left=0;bottom=0;right=0;editable=1;overflow=hidden;whiteSpace=wrap;html=1;" vertex="1" parent="IzCcqweRD-dVVf9Xq-Db-5">
          <mxGeometry width="30" height="30" as="geometry">
            <mxRectangle width="30" height="30" as="alternateBounds" />
          </mxGeometry>
        </mxCell>
        <mxCell id="IzCcqweRD-dVVf9Xq-Db-7" value="telefone" style="shape=partialRectangle;connectable=0;fillColor=none;top=0;left=0;bottom=0;right=0;align=left;spacingLeft=6;overflow=hidden;whiteSpace=wrap;html=1;" vertex="1" parent="IzCcqweRD-dVVf9Xq-Db-5">
          <mxGeometry x="30" width="100" height="30" as="geometry">
            <mxRectangle width="100" height="30" as="alternateBounds" />
          </mxGeometry>
        </mxCell>
        <mxCell id="IzCcqweRD-dVVf9Xq-Db-8" value="" style="shape=tableRow;horizontal=0;startSize=0;swimlaneHead=0;swimlaneBody=0;fillColor=none;collapsible=0;dropTarget=0;points=[[0,0.5],[1,0.5]];portConstraint=eastwest;top=0;left=0;right=0;bottom=0;" vertex="1" parent="IzCcqweRD-dVVf9Xq-Db-1">
          <mxGeometry y="90" width="130" height="30" as="geometry" />
        </mxCell>
        <mxCell id="IzCcqweRD-dVVf9Xq-Db-9" value="" style="shape=partialRectangle;connectable=0;fillColor=none;top=0;left=0;bottom=0;right=0;editable=1;overflow=hidden;whiteSpace=wrap;html=1;" vertex="1" parent="IzCcqweRD-dVVf9Xq-Db-8">
          <mxGeometry width="30" height="30" as="geometry">
            <mxRectangle width="30" height="30" as="alternateBounds" />
          </mxGeometry>
        </mxCell>
        <mxCell id="IzCcqweRD-dVVf9Xq-Db-10" value="morada" style="shape=partialRectangle;connectable=0;fillColor=none;top=0;left=0;bottom=0;right=0;align=left;spacingLeft=6;overflow=hidden;whiteSpace=wrap;html=1;" vertex="1" parent="IzCcqweRD-dVVf9Xq-Db-8">
          <mxGeometry x="30" width="100" height="30" as="geometry">
            <mxRectangle width="100" height="30" as="alternateBounds" />
          </mxGeometry>
        </mxCell>
        <mxCell id="IzCcqweRD-dVVf9Xq-Db-11" value="" style="shape=tableRow;horizontal=0;startSize=0;swimlaneHead=0;swimlaneBody=0;fillColor=none;collapsible=0;dropTarget=0;points=[[0,0.5],[1,0.5]];portConstraint=eastwest;top=0;left=0;right=0;bottom=0;" vertex="1" parent="IzCcqweRD-dVVf9Xq-Db-1">
          <mxGeometry y="120" width="130" height="30" as="geometry" />
        </mxCell>
        <mxCell id="IzCcqweRD-dVVf9Xq-Db-12" value="" style="shape=partialRectangle;connectable=0;fillColor=none;top=0;left=0;bottom=0;right=0;editable=1;overflow=hidden;whiteSpace=wrap;html=1;" vertex="1" parent="IzCcqweRD-dVVf9Xq-Db-11">
          <mxGeometry width="30" height="30" as="geometry">
            <mxRectangle width="30" height="30" as="alternateBounds" />
          </mxGeometry>
        </mxCell>
        <mxCell id="IzCcqweRD-dVVf9Xq-Db-13" value="nome" style="shape=partialRectangle;connectable=0;fillColor=none;top=0;left=0;bottom=0;right=0;align=left;spacingLeft=6;overflow=hidden;whiteSpace=wrap;html=1;" vertex="1" parent="IzCcqweRD-dVVf9Xq-Db-11">
          <mxGeometry x="30" width="100" height="30" as="geometry">
            <mxRectangle width="100" height="30" as="alternateBounds" />
          </mxGeometry>
        </mxCell>
        <mxCell id="IzCcqweRD-dVVf9Xq-Db-16" value="" style="shape=tableRow;horizontal=0;startSize=0;swimlaneHead=0;swimlaneBody=0;fillColor=none;collapsible=0;dropTarget=0;points=[[0,0.5],[1,0.5]];portConstraint=eastwest;top=0;left=0;right=0;bottom=0;" vertex="1" parent="IzCcqweRD-dVVf9Xq-Db-1">
          <mxGeometry y="150" width="130" height="30" as="geometry" />
        </mxCell>
        <mxCell id="IzCcqweRD-dVVf9Xq-Db-17" value="" style="shape=partialRectangle;connectable=0;fillColor=none;top=0;left=0;bottom=0;right=0;editable=1;overflow=hidden;whiteSpace=wrap;html=1;" vertex="1" parent="IzCcqweRD-dVVf9Xq-Db-16">
          <mxGeometry width="30" height="30" as="geometry">
            <mxRectangle width="30" height="30" as="alternateBounds" />
          </mxGeometry>
        </mxCell>
        <mxCell id="IzCcqweRD-dVVf9Xq-Db-18" value="email" style="shape=partialRectangle;connectable=0;fillColor=none;top=0;left=0;bottom=0;right=0;align=left;spacingLeft=6;overflow=hidden;whiteSpace=wrap;html=1;" vertex="1" parent="IzCcqweRD-dVVf9Xq-Db-16">
          <mxGeometry x="30" width="100" height="30" as="geometry">
            <mxRectangle width="100" height="30" as="alternateBounds" />
          </mxGeometry>
        </mxCell>
        <mxCell id="IzCcqweRD-dVVf9Xq-Db-14" value="&lt;b&gt;Modelo de Dados&lt;/b&gt;" style="text;html=1;align=left;verticalAlign=middle;resizable=0;points=[];autosize=1;strokeColor=none;fillColor=none;" vertex="1" parent="1">
          <mxGeometry x="-2400" y="665" width="120" height="30" as="geometry" />
        </mxCell>
        <mxCell id="IzCcqweRD-dVVf9Xq-Db-19" value="Pagamento" style="shape=table;startSize=30;container=1;collapsible=1;childLayout=tableLayout;fixedRows=1;rowLines=0;fontStyle=1;align=center;resizeLast=1;html=1;" vertex="1" parent="1">
          <mxGeometry x="-2197" y="705" width="130" height="150" as="geometry">
            <mxRectangle x="-2197" y="770" width="100" height="30" as="alternateBounds" />
          </mxGeometry>
        </mxCell>
        <mxCell id="IzCcqweRD-dVVf9Xq-Db-20" value="" style="shape=tableRow;horizontal=0;startSize=0;swimlaneHead=0;swimlaneBody=0;fillColor=none;collapsible=0;dropTarget=0;points=[[0,0.5],[1,0.5]];portConstraint=eastwest;top=0;left=0;right=0;bottom=1;" vertex="1" parent="IzCcqweRD-dVVf9Xq-Db-19">
          <mxGeometry y="30" width="130" height="30" as="geometry" />
        </mxCell>
        <mxCell id="IzCcqweRD-dVVf9Xq-Db-21" value="PK" style="shape=partialRectangle;connectable=0;fillColor=none;top=0;left=0;bottom=0;right=0;fontStyle=1;overflow=hidden;whiteSpace=wrap;html=1;" vertex="1" parent="IzCcqweRD-dVVf9Xq-Db-20">
          <mxGeometry width="30" height="30" as="geometry">
            <mxRectangle width="30" height="30" as="alternateBounds" />
          </mxGeometry>
        </mxCell>
        <mxCell id="IzCcqweRD-dVVf9Xq-Db-22" value="codigo" style="shape=partialRectangle;connectable=0;fillColor=none;top=0;left=0;bottom=0;right=0;align=left;spacingLeft=6;fontStyle=5;overflow=hidden;whiteSpace=wrap;html=1;" vertex="1" parent="IzCcqweRD-dVVf9Xq-Db-20">
          <mxGeometry x="30" width="100" height="30" as="geometry">
            <mxRectangle width="100" height="30" as="alternateBounds" />
          </mxGeometry>
        </mxCell>
        <mxCell id="IzCcqweRD-dVVf9Xq-Db-23" value="" style="shape=tableRow;horizontal=0;startSize=0;swimlaneHead=0;swimlaneBody=0;fillColor=none;collapsible=0;dropTarget=0;points=[[0,0.5],[1,0.5]];portConstraint=eastwest;top=0;left=0;right=0;bottom=0;" vertex="1" parent="IzCcqweRD-dVVf9Xq-Db-19">
          <mxGeometry y="60" width="130" height="30" as="geometry" />
        </mxCell>
        <mxCell id="IzCcqweRD-dVVf9Xq-Db-24" value="" style="shape=partialRectangle;connectable=0;fillColor=none;top=0;left=0;bottom=0;right=0;editable=1;overflow=hidden;whiteSpace=wrap;html=1;" vertex="1" parent="IzCcqweRD-dVVf9Xq-Db-23">
          <mxGeometry width="30" height="30" as="geometry">
            <mxRectangle width="30" height="30" as="alternateBounds" />
          </mxGeometry>
        </mxCell>
        <mxCell id="IzCcqweRD-dVVf9Xq-Db-25" value="tipoPagamento" style="shape=partialRectangle;connectable=0;fillColor=none;top=0;left=0;bottom=0;right=0;align=left;spacingLeft=6;overflow=hidden;whiteSpace=wrap;html=1;" vertex="1" parent="IzCcqweRD-dVVf9Xq-Db-23">
          <mxGeometry x="30" width="100" height="30" as="geometry">
            <mxRectangle width="100" height="30" as="alternateBounds" />
          </mxGeometry>
        </mxCell>
        <mxCell id="IzCcqweRD-dVVf9Xq-Db-26" value="" style="shape=tableRow;horizontal=0;startSize=0;swimlaneHead=0;swimlaneBody=0;fillColor=none;collapsible=0;dropTarget=0;points=[[0,0.5],[1,0.5]];portConstraint=eastwest;top=0;left=0;right=0;bottom=0;" vertex="1" parent="IzCcqweRD-dVVf9Xq-Db-19">
          <mxGeometry y="90" width="130" height="30" as="geometry" />
        </mxCell>
        <mxCell id="IzCcqweRD-dVVf9Xq-Db-27" value="" style="shape=partialRectangle;connectable=0;fillColor=none;top=0;left=0;bottom=0;right=0;editable=1;overflow=hidden;whiteSpace=wrap;html=1;" vertex="1" parent="IzCcqweRD-dVVf9Xq-Db-26">
          <mxGeometry width="30" height="30" as="geometry">
            <mxRectangle width="30" height="30" as="alternateBounds" />
          </mxGeometry>
        </mxCell>
        <mxCell id="IzCcqweRD-dVVf9Xq-Db-28" value="dataHora" style="shape=partialRectangle;connectable=0;fillColor=none;top=0;left=0;bottom=0;right=0;align=left;spacingLeft=6;overflow=hidden;whiteSpace=wrap;html=1;" vertex="1" parent="IzCcqweRD-dVVf9Xq-Db-26">
          <mxGeometry x="30" width="100" height="30" as="geometry">
            <mxRectangle width="100" height="30" as="alternateBounds" />
          </mxGeometry>
        </mxCell>
        <mxCell id="IzCcqweRD-dVVf9Xq-Db-32" value="" style="shape=tableRow;horizontal=0;startSize=0;swimlaneHead=0;swimlaneBody=0;fillColor=none;collapsible=0;dropTarget=0;points=[[0,0.5],[1,0.5]];portConstraint=eastwest;top=0;left=0;right=0;bottom=0;" vertex="1" parent="IzCcqweRD-dVVf9Xq-Db-19">
          <mxGeometry y="120" width="130" height="30" as="geometry" />
        </mxCell>
        <mxCell id="IzCcqweRD-dVVf9Xq-Db-33" value="" style="shape=partialRectangle;connectable=0;fillColor=none;top=0;left=0;bottom=0;right=0;editable=1;overflow=hidden;whiteSpace=wrap;html=1;" vertex="1" parent="IzCcqweRD-dVVf9Xq-Db-32">
          <mxGeometry width="30" height="30" as="geometry">
            <mxRectangle width="30" height="30" as="alternateBounds" />
          </mxGeometry>
        </mxCell>
        <mxCell id="IzCcqweRD-dVVf9Xq-Db-34" value="" style="shape=partialRectangle;connectable=0;fillColor=none;top=0;left=0;bottom=0;right=0;align=left;spacingLeft=6;overflow=hidden;whiteSpace=wrap;html=1;" vertex="1" parent="IzCcqweRD-dVVf9Xq-Db-32">
          <mxGeometry x="30" width="100" height="30" as="geometry">
            <mxRectangle width="100" height="30" as="alternateBounds" />
          </mxGeometry>
        </mxCell>
        <mxCell id="IzCcqweRD-dVVf9Xq-Db-35" value="Produto" style="shape=table;startSize=30;container=1;collapsible=1;childLayout=tableLayout;fixedRows=1;rowLines=0;fontStyle=1;align=center;resizeLast=1;html=1;" vertex="1" parent="1">
          <mxGeometry x="-2009" y="705" width="130" height="180" as="geometry" />
        </mxCell>
        <mxCell id="IzCcqweRD-dVVf9Xq-Db-36" value="" style="shape=tableRow;horizontal=0;startSize=0;swimlaneHead=0;swimlaneBody=0;fillColor=none;collapsible=0;dropTarget=0;points=[[0,0.5],[1,0.5]];portConstraint=eastwest;top=0;left=0;right=0;bottom=1;" vertex="1" parent="IzCcqweRD-dVVf9Xq-Db-35">
          <mxGeometry y="30" width="130" height="30" as="geometry" />
        </mxCell>
        <mxCell id="IzCcqweRD-dVVf9Xq-Db-37" value="PK" style="shape=partialRectangle;connectable=0;fillColor=none;top=0;left=0;bottom=0;right=0;fontStyle=1;overflow=hidden;whiteSpace=wrap;html=1;" vertex="1" parent="IzCcqweRD-dVVf9Xq-Db-36">
          <mxGeometry width="30" height="30" as="geometry">
            <mxRectangle width="30" height="30" as="alternateBounds" />
          </mxGeometry>
        </mxCell>
        <mxCell id="IzCcqweRD-dVVf9Xq-Db-38" value="codigoBarras" style="shape=partialRectangle;connectable=0;fillColor=none;top=0;left=0;bottom=0;right=0;align=left;spacingLeft=6;fontStyle=5;overflow=hidden;whiteSpace=wrap;html=1;" vertex="1" parent="IzCcqweRD-dVVf9Xq-Db-36">
          <mxGeometry x="30" width="100" height="30" as="geometry">
            <mxRectangle width="100" height="30" as="alternateBounds" />
          </mxGeometry>
        </mxCell>
        <mxCell id="IzCcqweRD-dVVf9Xq-Db-39" value="" style="shape=tableRow;horizontal=0;startSize=0;swimlaneHead=0;swimlaneBody=0;fillColor=none;collapsible=0;dropTarget=0;points=[[0,0.5],[1,0.5]];portConstraint=eastwest;top=0;left=0;right=0;bottom=0;" vertex="1" parent="IzCcqweRD-dVVf9Xq-Db-35">
          <mxGeometry y="60" width="130" height="30" as="geometry" />
        </mxCell>
        <mxCell id="IzCcqweRD-dVVf9Xq-Db-40" value="" style="shape=partialRectangle;connectable=0;fillColor=none;top=0;left=0;bottom=0;right=0;editable=1;overflow=hidden;whiteSpace=wrap;html=1;" vertex="1" parent="IzCcqweRD-dVVf9Xq-Db-39">
          <mxGeometry width="30" height="30" as="geometry">
            <mxRectangle width="30" height="30" as="alternateBounds" />
          </mxGeometry>
        </mxCell>
        <mxCell id="IzCcqweRD-dVVf9Xq-Db-41" value="nome" style="shape=partialRectangle;connectable=0;fillColor=none;top=0;left=0;bottom=0;right=0;align=left;spacingLeft=6;overflow=hidden;whiteSpace=wrap;html=1;" vertex="1" parent="IzCcqweRD-dVVf9Xq-Db-39">
          <mxGeometry x="30" width="100" height="30" as="geometry">
            <mxRectangle width="100" height="30" as="alternateBounds" />
          </mxGeometry>
        </mxCell>
        <mxCell id="IzCcqweRD-dVVf9Xq-Db-42" value="" style="shape=tableRow;horizontal=0;startSize=0;swimlaneHead=0;swimlaneBody=0;fillColor=none;collapsible=0;dropTarget=0;points=[[0,0.5],[1,0.5]];portConstraint=eastwest;top=0;left=0;right=0;bottom=0;" vertex="1" parent="IzCcqweRD-dVVf9Xq-Db-35">
          <mxGeometry y="90" width="130" height="30" as="geometry" />
        </mxCell>
        <mxCell id="IzCcqweRD-dVVf9Xq-Db-43" value="" style="shape=partialRectangle;connectable=0;fillColor=none;top=0;left=0;bottom=0;right=0;editable=1;overflow=hidden;whiteSpace=wrap;html=1;" vertex="1" parent="IzCcqweRD-dVVf9Xq-Db-42">
          <mxGeometry width="30" height="30" as="geometry">
            <mxRectangle width="30" height="30" as="alternateBounds" />
          </mxGeometry>
        </mxCell>
        <mxCell id="IzCcqweRD-dVVf9Xq-Db-44" value="descricao" style="shape=partialRectangle;connectable=0;fillColor=none;top=0;left=0;bottom=0;right=0;align=left;spacingLeft=6;overflow=hidden;whiteSpace=wrap;html=1;" vertex="1" parent="IzCcqweRD-dVVf9Xq-Db-42">
          <mxGeometry x="30" width="100" height="30" as="geometry">
            <mxRectangle width="100" height="30" as="alternateBounds" />
          </mxGeometry>
        </mxCell>
        <mxCell id="IzCcqweRD-dVVf9Xq-Db-45" value="" style="shape=tableRow;horizontal=0;startSize=0;swimlaneHead=0;swimlaneBody=0;fillColor=none;collapsible=0;dropTarget=0;points=[[0,0.5],[1,0.5]];portConstraint=eastwest;top=0;left=0;right=0;bottom=0;" vertex="1" parent="IzCcqweRD-dVVf9Xq-Db-35">
          <mxGeometry y="120" width="130" height="30" as="geometry" />
        </mxCell>
        <mxCell id="IzCcqweRD-dVVf9Xq-Db-46" value="" style="shape=partialRectangle;connectable=0;fillColor=none;top=0;left=0;bottom=0;right=0;editable=1;overflow=hidden;whiteSpace=wrap;html=1;" vertex="1" parent="IzCcqweRD-dVVf9Xq-Db-45">
          <mxGeometry width="30" height="30" as="geometry">
            <mxRectangle width="30" height="30" as="alternateBounds" />
          </mxGeometry>
        </mxCell>
        <mxCell id="IzCcqweRD-dVVf9Xq-Db-47" value="valor" style="shape=partialRectangle;connectable=0;fillColor=none;top=0;left=0;bottom=0;right=0;align=left;spacingLeft=6;overflow=hidden;whiteSpace=wrap;html=1;" vertex="1" parent="IzCcqweRD-dVVf9Xq-Db-45">
          <mxGeometry x="30" width="100" height="30" as="geometry">
            <mxRectangle width="100" height="30" as="alternateBounds" />
          </mxGeometry>
        </mxCell>
        <mxCell id="IzCcqweRD-dVVf9Xq-Db-89" value="" style="shape=tableRow;horizontal=0;startSize=0;swimlaneHead=0;swimlaneBody=0;fillColor=none;collapsible=0;dropTarget=0;points=[[0,0.5],[1,0.5]];portConstraint=eastwest;top=0;left=0;right=0;bottom=0;" vertex="1" parent="IzCcqweRD-dVVf9Xq-Db-35">
          <mxGeometry y="150" width="130" height="30" as="geometry" />
        </mxCell>
        <mxCell id="IzCcqweRD-dVVf9Xq-Db-90" value="FK" style="shape=partialRectangle;connectable=0;fillColor=none;top=0;left=0;bottom=0;right=0;editable=1;overflow=hidden;whiteSpace=wrap;html=1;" vertex="1" parent="IzCcqweRD-dVVf9Xq-Db-89">
          <mxGeometry width="30" height="30" as="geometry">
            <mxRectangle width="30" height="30" as="alternateBounds" />
          </mxGeometry>
        </mxCell>
        <mxCell id="IzCcqweRD-dVVf9Xq-Db-91" value="idCategoria" style="shape=partialRectangle;connectable=0;fillColor=none;top=0;left=0;bottom=0;right=0;align=left;spacingLeft=6;overflow=hidden;whiteSpace=wrap;html=1;" vertex="1" parent="IzCcqweRD-dVVf9Xq-Db-89">
          <mxGeometry x="30" width="100" height="30" as="geometry">
            <mxRectangle width="100" height="30" as="alternateBounds" />
          </mxGeometry>
        </mxCell>
        <mxCell id="IzCcqweRD-dVVf9Xq-Db-48" value="Categoria" style="shape=table;startSize=30;container=1;collapsible=1;childLayout=tableLayout;fixedRows=1;rowLines=0;fontStyle=1;align=center;resizeLast=1;html=1;" vertex="1" parent="1">
          <mxGeometry x="-1820" y="705" width="113" height="150" as="geometry" />
        </mxCell>
        <mxCell id="IzCcqweRD-dVVf9Xq-Db-49" value="" style="shape=tableRow;horizontal=0;startSize=0;swimlaneHead=0;swimlaneBody=0;fillColor=none;collapsible=0;dropTarget=0;points=[[0,0.5],[1,0.5]];portConstraint=eastwest;top=0;left=0;right=0;bottom=1;" vertex="1" parent="IzCcqweRD-dVVf9Xq-Db-48">
          <mxGeometry y="30" width="113" height="40" as="geometry" />
        </mxCell>
        <mxCell id="IzCcqweRD-dVVf9Xq-Db-50" value="PK" style="shape=partialRectangle;connectable=0;fillColor=none;top=0;left=0;bottom=0;right=0;fontStyle=1;overflow=hidden;whiteSpace=wrap;html=1;" vertex="1" parent="IzCcqweRD-dVVf9Xq-Db-49">
          <mxGeometry width="30" height="40" as="geometry">
            <mxRectangle width="30" height="40" as="alternateBounds" />
          </mxGeometry>
        </mxCell>
        <mxCell id="IzCcqweRD-dVVf9Xq-Db-51" value="id" style="shape=partialRectangle;connectable=0;fillColor=none;top=0;left=0;bottom=0;right=0;align=left;spacingLeft=6;fontStyle=5;overflow=hidden;whiteSpace=wrap;html=1;" vertex="1" parent="IzCcqweRD-dVVf9Xq-Db-49">
          <mxGeometry x="30" width="83" height="40" as="geometry">
            <mxRectangle width="83" height="40" as="alternateBounds" />
          </mxGeometry>
        </mxCell>
        <mxCell id="IzCcqweRD-dVVf9Xq-Db-52" value="" style="shape=tableRow;horizontal=0;startSize=0;swimlaneHead=0;swimlaneBody=0;fillColor=none;collapsible=0;dropTarget=0;points=[[0,0.5],[1,0.5]];portConstraint=eastwest;top=0;left=0;right=0;bottom=0;" vertex="1" parent="IzCcqweRD-dVVf9Xq-Db-48">
          <mxGeometry y="70" width="113" height="20" as="geometry" />
        </mxCell>
        <mxCell id="IzCcqweRD-dVVf9Xq-Db-53" value="" style="shape=partialRectangle;connectable=0;fillColor=none;top=0;left=0;bottom=0;right=0;editable=1;overflow=hidden;whiteSpace=wrap;html=1;" vertex="1" parent="IzCcqweRD-dVVf9Xq-Db-52">
          <mxGeometry width="30" height="20" as="geometry">
            <mxRectangle width="30" height="20" as="alternateBounds" />
          </mxGeometry>
        </mxCell>
        <mxCell id="IzCcqweRD-dVVf9Xq-Db-54" value="nome" style="shape=partialRectangle;connectable=0;fillColor=none;top=0;left=0;bottom=0;right=0;align=left;spacingLeft=6;overflow=hidden;whiteSpace=wrap;html=1;" vertex="1" parent="IzCcqweRD-dVVf9Xq-Db-52">
          <mxGeometry x="30" width="83" height="20" as="geometry">
            <mxRectangle width="83" height="20" as="alternateBounds" />
          </mxGeometry>
        </mxCell>
        <mxCell id="IzCcqweRD-dVVf9Xq-Db-55" value="" style="shape=tableRow;horizontal=0;startSize=0;swimlaneHead=0;swimlaneBody=0;fillColor=none;collapsible=0;dropTarget=0;points=[[0,0.5],[1,0.5]];portConstraint=eastwest;top=0;left=0;right=0;bottom=0;" vertex="1" parent="IzCcqweRD-dVVf9Xq-Db-48">
          <mxGeometry y="90" width="113" height="30" as="geometry" />
        </mxCell>
        <mxCell id="IzCcqweRD-dVVf9Xq-Db-56" value="" style="shape=partialRectangle;connectable=0;fillColor=none;top=0;left=0;bottom=0;right=0;editable=1;overflow=hidden;whiteSpace=wrap;html=1;" vertex="1" parent="IzCcqweRD-dVVf9Xq-Db-55">
          <mxGeometry width="30" height="30" as="geometry">
            <mxRectangle width="30" height="30" as="alternateBounds" />
          </mxGeometry>
        </mxCell>
        <mxCell id="IzCcqweRD-dVVf9Xq-Db-57" value="descricao" style="shape=partialRectangle;connectable=0;fillColor=none;top=0;left=0;bottom=0;right=0;align=left;spacingLeft=6;overflow=hidden;whiteSpace=wrap;html=1;" vertex="1" parent="IzCcqweRD-dVVf9Xq-Db-55">
          <mxGeometry x="30" width="83" height="30" as="geometry">
            <mxRectangle width="83" height="30" as="alternateBounds" />
          </mxGeometry>
        </mxCell>
        <mxCell id="IzCcqweRD-dVVf9Xq-Db-58" value="" style="shape=tableRow;horizontal=0;startSize=0;swimlaneHead=0;swimlaneBody=0;fillColor=none;collapsible=0;dropTarget=0;points=[[0,0.5],[1,0.5]];portConstraint=eastwest;top=0;left=0;right=0;bottom=0;" vertex="1" parent="IzCcqweRD-dVVf9Xq-Db-48">
          <mxGeometry y="120" width="113" height="30" as="geometry" />
        </mxCell>
        <mxCell id="IzCcqweRD-dVVf9Xq-Db-59" value="" style="shape=partialRectangle;connectable=0;fillColor=none;top=0;left=0;bottom=0;right=0;editable=1;overflow=hidden;whiteSpace=wrap;html=1;" vertex="1" parent="IzCcqweRD-dVVf9Xq-Db-58">
          <mxGeometry width="30" height="30" as="geometry">
            <mxRectangle width="30" height="30" as="alternateBounds" />
          </mxGeometry>
        </mxCell>
        <mxCell id="IzCcqweRD-dVVf9Xq-Db-60" value="" style="shape=partialRectangle;connectable=0;fillColor=none;top=0;left=0;bottom=0;right=0;align=left;spacingLeft=6;overflow=hidden;whiteSpace=wrap;html=1;" vertex="1" parent="IzCcqweRD-dVVf9Xq-Db-58">
          <mxGeometry x="30" width="83" height="30" as="geometry">
            <mxRectangle width="83" height="30" as="alternateBounds" />
          </mxGeometry>
        </mxCell>
        <mxCell id="IzCcqweRD-dVVf9Xq-Db-61" value="Entregador" style="shape=table;startSize=30;container=1;collapsible=1;childLayout=tableLayout;fixedRows=1;rowLines=0;fontStyle=1;align=center;resizeLast=1;html=1;" vertex="1" parent="1">
          <mxGeometry x="-2400" y="920" width="110" height="120" as="geometry" />
        </mxCell>
        <mxCell id="IzCcqweRD-dVVf9Xq-Db-62" value="" style="shape=tableRow;horizontal=0;startSize=0;swimlaneHead=0;swimlaneBody=0;fillColor=none;collapsible=0;dropTarget=0;points=[[0,0.5],[1,0.5]];portConstraint=eastwest;top=0;left=0;right=0;bottom=1;" vertex="1" parent="IzCcqweRD-dVVf9Xq-Db-61">
          <mxGeometry y="30" width="110" height="40" as="geometry" />
        </mxCell>
        <mxCell id="IzCcqweRD-dVVf9Xq-Db-63" value="PK" style="shape=partialRectangle;connectable=0;fillColor=none;top=0;left=0;bottom=0;right=0;fontStyle=1;overflow=hidden;whiteSpace=wrap;html=1;" vertex="1" parent="IzCcqweRD-dVVf9Xq-Db-62">
          <mxGeometry width="30" height="40" as="geometry">
            <mxRectangle width="30" height="40" as="alternateBounds" />
          </mxGeometry>
        </mxCell>
        <mxCell id="IzCcqweRD-dVVf9Xq-Db-64" value="cc" style="shape=partialRectangle;connectable=0;fillColor=none;top=0;left=0;bottom=0;right=0;align=left;spacingLeft=6;fontStyle=5;overflow=hidden;whiteSpace=wrap;html=1;" vertex="1" parent="IzCcqweRD-dVVf9Xq-Db-62">
          <mxGeometry x="30" width="80" height="40" as="geometry">
            <mxRectangle width="80" height="40" as="alternateBounds" />
          </mxGeometry>
        </mxCell>
        <mxCell id="IzCcqweRD-dVVf9Xq-Db-65" value="" style="shape=tableRow;horizontal=0;startSize=0;swimlaneHead=0;swimlaneBody=0;fillColor=none;collapsible=0;dropTarget=0;points=[[0,0.5],[1,0.5]];portConstraint=eastwest;top=0;left=0;right=0;bottom=0;" vertex="1" parent="IzCcqweRD-dVVf9Xq-Db-61">
          <mxGeometry y="70" width="110" height="20" as="geometry" />
        </mxCell>
        <mxCell id="IzCcqweRD-dVVf9Xq-Db-66" value="" style="shape=partialRectangle;connectable=0;fillColor=none;top=0;left=0;bottom=0;right=0;editable=1;overflow=hidden;whiteSpace=wrap;html=1;" vertex="1" parent="IzCcqweRD-dVVf9Xq-Db-65">
          <mxGeometry width="30" height="20" as="geometry">
            <mxRectangle width="30" height="20" as="alternateBounds" />
          </mxGeometry>
        </mxCell>
        <mxCell id="IzCcqweRD-dVVf9Xq-Db-67" value="nome" style="shape=partialRectangle;connectable=0;fillColor=none;top=0;left=0;bottom=0;right=0;align=left;spacingLeft=6;overflow=hidden;whiteSpace=wrap;html=1;" vertex="1" parent="IzCcqweRD-dVVf9Xq-Db-65">
          <mxGeometry x="30" width="80" height="20" as="geometry">
            <mxRectangle width="80" height="20" as="alternateBounds" />
          </mxGeometry>
        </mxCell>
        <mxCell id="IzCcqweRD-dVVf9Xq-Db-71" value="" style="shape=tableRow;horizontal=0;startSize=0;swimlaneHead=0;swimlaneBody=0;fillColor=none;collapsible=0;dropTarget=0;points=[[0,0.5],[1,0.5]];portConstraint=eastwest;top=0;left=0;right=0;bottom=0;" vertex="1" parent="IzCcqweRD-dVVf9Xq-Db-61">
          <mxGeometry y="90" width="110" height="30" as="geometry" />
        </mxCell>
        <mxCell id="IzCcqweRD-dVVf9Xq-Db-72" value="" style="shape=partialRectangle;connectable=0;fillColor=none;top=0;left=0;bottom=0;right=0;editable=1;overflow=hidden;whiteSpace=wrap;html=1;" vertex="1" parent="IzCcqweRD-dVVf9Xq-Db-71">
          <mxGeometry width="30" height="30" as="geometry">
            <mxRectangle width="30" height="30" as="alternateBounds" />
          </mxGeometry>
        </mxCell>
        <mxCell id="IzCcqweRD-dVVf9Xq-Db-73" value="" style="shape=partialRectangle;connectable=0;fillColor=none;top=0;left=0;bottom=0;right=0;align=left;spacingLeft=6;overflow=hidden;whiteSpace=wrap;html=1;" vertex="1" parent="IzCcqweRD-dVVf9Xq-Db-71">
          <mxGeometry x="30" width="80" height="30" as="geometry">
            <mxRectangle width="80" height="30" as="alternateBounds" />
          </mxGeometry>
        </mxCell>
        <mxCell id="IzCcqweRD-dVVf9Xq-Db-74" value="Encomenda" style="shape=table;startSize=30;container=1;collapsible=1;childLayout=tableLayout;fixedRows=1;rowLines=0;fontStyle=1;align=center;resizeLast=1;html=1;" vertex="1" parent="1">
          <mxGeometry x="-2197" y="885" width="137" height="235" as="geometry" />
        </mxCell>
        <mxCell id="IzCcqweRD-dVVf9Xq-Db-75" value="" style="shape=tableRow;horizontal=0;startSize=0;swimlaneHead=0;swimlaneBody=0;fillColor=none;collapsible=0;dropTarget=0;points=[[0,0.5],[1,0.5]];portConstraint=eastwest;top=0;left=0;right=0;bottom=1;" vertex="1" parent="IzCcqweRD-dVVf9Xq-Db-74">
          <mxGeometry y="30" width="137" height="35" as="geometry" />
        </mxCell>
        <mxCell id="IzCcqweRD-dVVf9Xq-Db-76" value="PK" style="shape=partialRectangle;connectable=0;fillColor=none;top=0;left=0;bottom=0;right=0;fontStyle=1;overflow=hidden;whiteSpace=wrap;html=1;" vertex="1" parent="IzCcqweRD-dVVf9Xq-Db-75">
          <mxGeometry width="30" height="35" as="geometry">
            <mxRectangle width="30" height="35" as="alternateBounds" />
          </mxGeometry>
        </mxCell>
        <mxCell id="IzCcqweRD-dVVf9Xq-Db-77" value="codigo" style="shape=partialRectangle;connectable=0;fillColor=none;top=0;left=0;bottom=0;right=0;align=left;spacingLeft=6;fontStyle=5;overflow=hidden;whiteSpace=wrap;html=1;" vertex="1" parent="IzCcqweRD-dVVf9Xq-Db-75">
          <mxGeometry x="30" width="107" height="35" as="geometry">
            <mxRectangle width="107" height="35" as="alternateBounds" />
          </mxGeometry>
        </mxCell>
        <mxCell id="IzCcqweRD-dVVf9Xq-Db-78" value="" style="shape=tableRow;horizontal=0;startSize=0;swimlaneHead=0;swimlaneBody=0;fillColor=none;collapsible=0;dropTarget=0;points=[[0,0.5],[1,0.5]];portConstraint=eastwest;top=0;left=0;right=0;bottom=0;" vertex="1" parent="IzCcqweRD-dVVf9Xq-Db-74">
          <mxGeometry y="65" width="137" height="20" as="geometry" />
        </mxCell>
        <mxCell id="IzCcqweRD-dVVf9Xq-Db-79" value="" style="shape=partialRectangle;connectable=0;fillColor=none;top=0;left=0;bottom=0;right=0;editable=1;overflow=hidden;whiteSpace=wrap;html=1;" vertex="1" parent="IzCcqweRD-dVVf9Xq-Db-78">
          <mxGeometry width="30" height="20" as="geometry">
            <mxRectangle width="30" height="20" as="alternateBounds" />
          </mxGeometry>
        </mxCell>
        <mxCell id="IzCcqweRD-dVVf9Xq-Db-80" value="valor" style="shape=partialRectangle;connectable=0;fillColor=none;top=0;left=0;bottom=0;right=0;align=left;spacingLeft=6;overflow=hidden;whiteSpace=wrap;html=1;" vertex="1" parent="IzCcqweRD-dVVf9Xq-Db-78">
          <mxGeometry x="30" width="107" height="20" as="geometry">
            <mxRectangle width="107" height="20" as="alternateBounds" />
          </mxGeometry>
        </mxCell>
        <mxCell id="IzCcqweRD-dVVf9Xq-Db-81" value="" style="shape=tableRow;horizontal=0;startSize=0;swimlaneHead=0;swimlaneBody=0;fillColor=none;collapsible=0;dropTarget=0;points=[[0,0.5],[1,0.5]];portConstraint=eastwest;top=0;left=0;right=0;bottom=0;" vertex="1" parent="IzCcqweRD-dVVf9Xq-Db-74">
          <mxGeometry y="85" width="137" height="30" as="geometry" />
        </mxCell>
        <mxCell id="IzCcqweRD-dVVf9Xq-Db-82" value="" style="shape=partialRectangle;connectable=0;fillColor=none;top=0;left=0;bottom=0;right=0;editable=1;overflow=hidden;whiteSpace=wrap;html=1;" vertex="1" parent="IzCcqweRD-dVVf9Xq-Db-81">
          <mxGeometry width="30" height="30" as="geometry">
            <mxRectangle width="30" height="30" as="alternateBounds" />
          </mxGeometry>
        </mxCell>
        <mxCell id="IzCcqweRD-dVVf9Xq-Db-83" value="dataHora" style="shape=partialRectangle;connectable=0;fillColor=none;top=0;left=0;bottom=0;right=0;align=left;spacingLeft=6;overflow=hidden;whiteSpace=wrap;html=1;" vertex="1" parent="IzCcqweRD-dVVf9Xq-Db-81">
          <mxGeometry x="30" width="107" height="30" as="geometry">
            <mxRectangle width="107" height="30" as="alternateBounds" />
          </mxGeometry>
        </mxCell>
        <mxCell id="IzCcqweRD-dVVf9Xq-Db-84" value="" style="shape=tableRow;horizontal=0;startSize=0;swimlaneHead=0;swimlaneBody=0;fillColor=none;collapsible=0;dropTarget=0;points=[[0,0.5],[1,0.5]];portConstraint=eastwest;top=0;left=0;right=0;bottom=0;" vertex="1" parent="IzCcqweRD-dVVf9Xq-Db-74">
          <mxGeometry y="115" width="137" height="30" as="geometry" />
        </mxCell>
        <mxCell id="IzCcqweRD-dVVf9Xq-Db-85" value="" style="shape=partialRectangle;connectable=0;fillColor=none;top=0;left=0;bottom=0;right=0;editable=1;overflow=hidden;whiteSpace=wrap;html=1;" vertex="1" parent="IzCcqweRD-dVVf9Xq-Db-84">
          <mxGeometry width="30" height="30" as="geometry">
            <mxRectangle width="30" height="30" as="alternateBounds" />
          </mxGeometry>
        </mxCell>
        <mxCell id="IzCcqweRD-dVVf9Xq-Db-86" value="morada" style="shape=partialRectangle;connectable=0;fillColor=none;top=0;left=0;bottom=0;right=0;align=left;spacingLeft=6;overflow=hidden;whiteSpace=wrap;html=1;" vertex="1" parent="IzCcqweRD-dVVf9Xq-Db-84">
          <mxGeometry x="30" width="107" height="30" as="geometry">
            <mxRectangle width="107" height="30" as="alternateBounds" />
          </mxGeometry>
        </mxCell>
        <mxCell id="IzCcqweRD-dVVf9Xq-Db-121" value="" style="shape=tableRow;horizontal=0;startSize=0;swimlaneHead=0;swimlaneBody=0;fillColor=none;collapsible=0;dropTarget=0;points=[[0,0.5],[1,0.5]];portConstraint=eastwest;top=0;left=0;right=0;bottom=0;" vertex="1" parent="IzCcqweRD-dVVf9Xq-Db-74">
          <mxGeometry y="145" width="137" height="30" as="geometry" />
        </mxCell>
        <mxCell id="IzCcqweRD-dVVf9Xq-Db-122" value="FK" style="shape=partialRectangle;connectable=0;fillColor=none;top=0;left=0;bottom=0;right=0;editable=1;overflow=hidden;whiteSpace=wrap;html=1;" vertex="1" parent="IzCcqweRD-dVVf9Xq-Db-121">
          <mxGeometry width="30" height="30" as="geometry">
            <mxRectangle width="30" height="30" as="alternateBounds" />
          </mxGeometry>
        </mxCell>
        <mxCell id="IzCcqweRD-dVVf9Xq-Db-123" value="codigoPagamento" style="shape=partialRectangle;connectable=0;fillColor=none;top=0;left=0;bottom=0;right=0;align=left;spacingLeft=6;overflow=hidden;whiteSpace=wrap;html=1;" vertex="1" parent="IzCcqweRD-dVVf9Xq-Db-121">
          <mxGeometry x="30" width="107" height="30" as="geometry">
            <mxRectangle width="107" height="30" as="alternateBounds" />
          </mxGeometry>
        </mxCell>
        <mxCell id="IzCcqweRD-dVVf9Xq-Db-125" value="" style="shape=tableRow;horizontal=0;startSize=0;swimlaneHead=0;swimlaneBody=0;fillColor=none;collapsible=0;dropTarget=0;points=[[0,0.5],[1,0.5]];portConstraint=eastwest;top=0;left=0;right=0;bottom=0;" vertex="1" parent="IzCcqweRD-dVVf9Xq-Db-74">
          <mxGeometry y="175" width="137" height="30" as="geometry" />
        </mxCell>
        <mxCell id="IzCcqweRD-dVVf9Xq-Db-126" value="FK" style="shape=partialRectangle;connectable=0;fillColor=none;top=0;left=0;bottom=0;right=0;editable=1;overflow=hidden;whiteSpace=wrap;html=1;" vertex="1" parent="IzCcqweRD-dVVf9Xq-Db-125">
          <mxGeometry width="30" height="30" as="geometry">
            <mxRectangle width="30" height="30" as="alternateBounds" />
          </mxGeometry>
        </mxCell>
        <mxCell id="IzCcqweRD-dVVf9Xq-Db-127" value="nifCliente" style="shape=partialRectangle;connectable=0;fillColor=none;top=0;left=0;bottom=0;right=0;align=left;spacingLeft=6;overflow=hidden;whiteSpace=wrap;html=1;" vertex="1" parent="IzCcqweRD-dVVf9Xq-Db-125">
          <mxGeometry x="30" width="107" height="30" as="geometry">
            <mxRectangle width="107" height="30" as="alternateBounds" />
          </mxGeometry>
        </mxCell>
        <mxCell id="IzCcqweRD-dVVf9Xq-Db-129" value="" style="shape=tableRow;horizontal=0;startSize=0;swimlaneHead=0;swimlaneBody=0;fillColor=none;collapsible=0;dropTarget=0;points=[[0,0.5],[1,0.5]];portConstraint=eastwest;top=0;left=0;right=0;bottom=0;" vertex="1" parent="IzCcqweRD-dVVf9Xq-Db-74">
          <mxGeometry y="205" width="137" height="30" as="geometry" />
        </mxCell>
        <mxCell id="IzCcqweRD-dVVf9Xq-Db-130" value="FK" style="shape=partialRectangle;connectable=0;fillColor=none;top=0;left=0;bottom=0;right=0;editable=1;overflow=hidden;whiteSpace=wrap;html=1;" vertex="1" parent="IzCcqweRD-dVVf9Xq-Db-129">
          <mxGeometry width="30" height="30" as="geometry">
            <mxRectangle width="30" height="30" as="alternateBounds" />
          </mxGeometry>
        </mxCell>
        <mxCell id="IzCcqweRD-dVVf9Xq-Db-131" value="ccEntregador" style="shape=partialRectangle;connectable=0;fillColor=none;top=0;left=0;bottom=0;right=0;align=left;spacingLeft=6;overflow=hidden;whiteSpace=wrap;html=1;" vertex="1" parent="IzCcqweRD-dVVf9Xq-Db-129">
          <mxGeometry x="30" width="107" height="30" as="geometry">
            <mxRectangle width="107" height="30" as="alternateBounds" />
          </mxGeometry>
        </mxCell>
        <mxCell id="IzCcqweRD-dVVf9Xq-Db-88" value="&lt;font style=&quot;font-size: 8px;&quot;&gt;Nota: Chave estrangeira é sempre do lado dos muitos&lt;/font&gt;" style="text;html=1;align=left;verticalAlign=middle;resizable=0;points=[];autosize=1;strokeColor=none;fillColor=none;" vertex="1" parent="1">
          <mxGeometry x="-1911" y="1090" width="220" height="30" as="geometry" />
        </mxCell>
        <mxCell id="IzCcqweRD-dVVf9Xq-Db-92" style="edgeStyle=orthogonalEdgeStyle;rounded=0;orthogonalLoop=1;jettySize=auto;html=1;exitX=0;exitY=0.5;exitDx=0;exitDy=0;entryX=1;entryY=0.5;entryDx=0;entryDy=0;endArrow=ERzeroToMany;endFill=0;startArrow=ERmandOne;startFill=0;" edge="1" parent="1" source="IzCcqweRD-dVVf9Xq-Db-49" target="IzCcqweRD-dVVf9Xq-Db-89">
          <mxGeometry relative="1" as="geometry" />
        </mxCell>
        <mxCell id="IzCcqweRD-dVVf9Xq-Db-106" value="linhaEncomenda" style="shape=table;startSize=30;container=1;collapsible=1;childLayout=tableLayout;fixedRows=1;rowLines=0;fontStyle=1;align=center;resizeLast=1;html=1;whiteSpace=wrap;" vertex="1" parent="1">
          <mxGeometry x="-2009" y="920" width="199" height="150" as="geometry" />
        </mxCell>
        <mxCell id="IzCcqweRD-dVVf9Xq-Db-107" value="" style="shape=tableRow;horizontal=0;startSize=0;swimlaneHead=0;swimlaneBody=0;fillColor=none;collapsible=0;dropTarget=0;points=[[0,0.5],[1,0.5]];portConstraint=eastwest;top=0;left=0;right=0;bottom=0;html=1;" vertex="1" parent="IzCcqweRD-dVVf9Xq-Db-106">
          <mxGeometry y="30" width="199" height="30" as="geometry" />
        </mxCell>
        <mxCell id="IzCcqweRD-dVVf9Xq-Db-108" value="PK,FK" style="shape=partialRectangle;connectable=0;fillColor=none;top=0;left=0;bottom=0;right=0;fontStyle=1;overflow=hidden;html=1;whiteSpace=wrap;" vertex="1" parent="IzCcqweRD-dVVf9Xq-Db-107">
          <mxGeometry width="60" height="30" as="geometry">
            <mxRectangle width="60" height="30" as="alternateBounds" />
          </mxGeometry>
        </mxCell>
        <mxCell id="IzCcqweRD-dVVf9Xq-Db-109" value="codigoEncomenda" style="shape=partialRectangle;connectable=0;fillColor=none;top=0;left=0;bottom=0;right=0;align=left;spacingLeft=6;fontStyle=5;overflow=hidden;html=1;whiteSpace=wrap;" vertex="1" parent="IzCcqweRD-dVVf9Xq-Db-107">
          <mxGeometry x="60" width="139" height="30" as="geometry">
            <mxRectangle width="139" height="30" as="alternateBounds" />
          </mxGeometry>
        </mxCell>
        <mxCell id="IzCcqweRD-dVVf9Xq-Db-110" value="" style="shape=tableRow;horizontal=0;startSize=0;swimlaneHead=0;swimlaneBody=0;fillColor=none;collapsible=0;dropTarget=0;points=[[0,0.5],[1,0.5]];portConstraint=eastwest;top=0;left=0;right=0;bottom=1;html=1;" vertex="1" parent="IzCcqweRD-dVVf9Xq-Db-106">
          <mxGeometry y="60" width="199" height="30" as="geometry" />
        </mxCell>
        <mxCell id="IzCcqweRD-dVVf9Xq-Db-111" value="PK,FK" style="shape=partialRectangle;connectable=0;fillColor=none;top=0;left=0;bottom=0;right=0;fontStyle=1;overflow=hidden;html=1;whiteSpace=wrap;" vertex="1" parent="IzCcqweRD-dVVf9Xq-Db-110">
          <mxGeometry width="60" height="30" as="geometry">
            <mxRectangle width="60" height="30" as="alternateBounds" />
          </mxGeometry>
        </mxCell>
        <mxCell id="IzCcqweRD-dVVf9Xq-Db-112" value="codigoBarrasProduto" style="shape=partialRectangle;connectable=0;fillColor=none;top=0;left=0;bottom=0;right=0;align=left;spacingLeft=6;fontStyle=5;overflow=hidden;html=1;whiteSpace=wrap;" vertex="1" parent="IzCcqweRD-dVVf9Xq-Db-110">
          <mxGeometry x="60" width="139" height="30" as="geometry">
            <mxRectangle width="139" height="30" as="alternateBounds" />
          </mxGeometry>
        </mxCell>
        <mxCell id="IzCcqweRD-dVVf9Xq-Db-113" value="" style="shape=tableRow;horizontal=0;startSize=0;swimlaneHead=0;swimlaneBody=0;fillColor=none;collapsible=0;dropTarget=0;points=[[0,0.5],[1,0.5]];portConstraint=eastwest;top=0;left=0;right=0;bottom=0;html=1;" vertex="1" parent="IzCcqweRD-dVVf9Xq-Db-106">
          <mxGeometry y="90" width="199" height="30" as="geometry" />
        </mxCell>
        <mxCell id="IzCcqweRD-dVVf9Xq-Db-114" value="" style="shape=partialRectangle;connectable=0;fillColor=none;top=0;left=0;bottom=0;right=0;editable=1;overflow=hidden;html=1;whiteSpace=wrap;" vertex="1" parent="IzCcqweRD-dVVf9Xq-Db-113">
          <mxGeometry width="60" height="30" as="geometry">
            <mxRectangle width="60" height="30" as="alternateBounds" />
          </mxGeometry>
        </mxCell>
        <mxCell id="IzCcqweRD-dVVf9Xq-Db-115" value="quantidade" style="shape=partialRectangle;connectable=0;fillColor=none;top=0;left=0;bottom=0;right=0;align=left;spacingLeft=6;overflow=hidden;html=1;whiteSpace=wrap;" vertex="1" parent="IzCcqweRD-dVVf9Xq-Db-113">
          <mxGeometry x="60" width="139" height="30" as="geometry">
            <mxRectangle width="139" height="30" as="alternateBounds" />
          </mxGeometry>
        </mxCell>
        <mxCell id="IzCcqweRD-dVVf9Xq-Db-116" value="" style="shape=tableRow;horizontal=0;startSize=0;swimlaneHead=0;swimlaneBody=0;fillColor=none;collapsible=0;dropTarget=0;points=[[0,0.5],[1,0.5]];portConstraint=eastwest;top=0;left=0;right=0;bottom=0;html=1;" vertex="1" parent="IzCcqweRD-dVVf9Xq-Db-106">
          <mxGeometry y="120" width="199" height="30" as="geometry" />
        </mxCell>
        <mxCell id="IzCcqweRD-dVVf9Xq-Db-117" value="" style="shape=partialRectangle;connectable=0;fillColor=none;top=0;left=0;bottom=0;right=0;editable=1;overflow=hidden;html=1;whiteSpace=wrap;" vertex="1" parent="IzCcqweRD-dVVf9Xq-Db-116">
          <mxGeometry width="60" height="30" as="geometry">
            <mxRectangle width="60" height="30" as="alternateBounds" />
          </mxGeometry>
        </mxCell>
        <mxCell id="IzCcqweRD-dVVf9Xq-Db-118" value="" style="shape=partialRectangle;connectable=0;fillColor=none;top=0;left=0;bottom=0;right=0;align=left;spacingLeft=6;overflow=hidden;html=1;whiteSpace=wrap;" vertex="1" parent="IzCcqweRD-dVVf9Xq-Db-116">
          <mxGeometry x="60" width="139" height="30" as="geometry">
            <mxRectangle width="139" height="30" as="alternateBounds" />
          </mxGeometry>
        </mxCell>
        <mxCell id="IzCcqweRD-dVVf9Xq-Db-119" style="edgeStyle=orthogonalEdgeStyle;rounded=0;orthogonalLoop=1;jettySize=auto;html=1;entryX=1;entryY=0.5;entryDx=0;entryDy=0;startArrow=ERoneToMany;startFill=0;endArrow=ERmandOne;endFill=0;exitX=0;exitY=0.5;exitDx=0;exitDy=0;" edge="1" parent="1" source="IzCcqweRD-dVVf9Xq-Db-107" target="IzCcqweRD-dVVf9Xq-Db-75">
          <mxGeometry relative="1" as="geometry">
            <mxPoint x="-2050" y="1005" as="sourcePoint" />
            <Array as="points" />
          </mxGeometry>
        </mxCell>
        <mxCell id="IzCcqweRD-dVVf9Xq-Db-120" style="edgeStyle=orthogonalEdgeStyle;rounded=0;orthogonalLoop=1;jettySize=auto;html=1;exitX=1;exitY=0.5;exitDx=0;exitDy=0;entryX=0;entryY=0.5;entryDx=0;entryDy=0;startArrow=ERoneToMany;startFill=0;endArrow=ERmandOne;endFill=0;" edge="1" parent="1" source="IzCcqweRD-dVVf9Xq-Db-110" target="IzCcqweRD-dVVf9Xq-Db-36">
          <mxGeometry relative="1" as="geometry">
            <Array as="points">
              <mxPoint x="-1790" y="995" />
              <mxPoint x="-1790" y="905" />
              <mxPoint x="-2029" y="905" />
              <mxPoint x="-2029" y="750" />
            </Array>
          </mxGeometry>
        </mxCell>
        <mxCell id="IzCcqweRD-dVVf9Xq-Db-124" style="edgeStyle=orthogonalEdgeStyle;rounded=0;orthogonalLoop=1;jettySize=auto;html=1;exitX=0;exitY=0.5;exitDx=0;exitDy=0;entryX=0;entryY=0.5;entryDx=0;entryDy=0;startArrow=ERmandOne;startFill=0;endArrow=ERmandOne;endFill=0;" edge="1" parent="1" source="IzCcqweRD-dVVf9Xq-Db-121" target="IzCcqweRD-dVVf9Xq-Db-20">
          <mxGeometry relative="1" as="geometry" />
        </mxCell>
        <mxCell id="IzCcqweRD-dVVf9Xq-Db-128" style="edgeStyle=orthogonalEdgeStyle;rounded=0;orthogonalLoop=1;jettySize=auto;html=1;exitX=0;exitY=0.5;exitDx=0;exitDy=0;entryX=0;entryY=0.5;entryDx=0;entryDy=0;endArrow=ERmandOne;endFill=0;startArrow=ERzeroToMany;startFill=0;" edge="1" parent="1" source="IzCcqweRD-dVVf9Xq-Db-125" target="IzCcqweRD-dVVf9Xq-Db-2">
          <mxGeometry relative="1" as="geometry" />
        </mxCell>
        <mxCell id="IzCcqweRD-dVVf9Xq-Db-132" style="edgeStyle=orthogonalEdgeStyle;rounded=0;orthogonalLoop=1;jettySize=auto;html=1;exitX=0;exitY=0.5;exitDx=0;exitDy=0;entryX=0;entryY=0.5;entryDx=0;entryDy=0;startArrow=ERzeroToMany;startFill=0;endArrow=ERmandOne;endFill=0;" edge="1" parent="1" source="IzCcqweRD-dVVf9Xq-Db-129" target="IzCcqweRD-dVVf9Xq-Db-62">
          <mxGeometry relative="1" as="geometry">
            <Array as="points">
              <mxPoint x="-2440" y="1105" />
              <mxPoint x="-2440" y="970" />
            </Array>
          </mxGeometry>
        </mxCell>
      </root>
    </mxGraphModel>
  </diagram>
  <diagram id="ROZgd2hxDVKO29RK28SI" name="Ex_02">
    <mxGraphModel grid="1" page="1" gridSize="10" guides="1" tooltips="1" connect="1" arrows="1" fold="1" pageScale="1" pageWidth="827" pageHeight="1169" math="0" shadow="0">
      <root>
        <mxCell id="0" />
        <mxCell id="1" parent="0" />
        <mxCell id="qH35i8oezf95vNfpNrsH-1" value="&lt;span dir=&quot;ltr&quot; class=&quot;ui-provider ne rp rq rr rs rt ru rv rw rx ry rz sa sb sc sd se sf sg sh si sj sk sl sm sn so sp sq sr ss st su sv sw&quot;&gt;2. O Banco &lt;i&gt;Milhões e Milhões&lt;/i&gt; criou um plano de conta chamado &lt;i&gt;Simplifica&lt;/i&gt;, que só permite gastar o saldo da &lt;strong&gt;conta&amp;nbsp;&lt;/strong&gt;&lt;/span&gt;&lt;div&gt;&lt;span dir=&quot;ltr&quot; class=&quot;ui-provider ne rp rq rr rs rt ru rv rw rx ry rz sa sb sc sd se sf sg sh si sj sk sl sm sn so sp sq sr ss st su sv sw&quot;&gt;em &lt;strong&gt;terminais de pagamento automáticos &lt;/strong&gt;(&lt;strong&gt;TPA&lt;/strong&gt;s). Cada &lt;strong&gt;cliente&lt;/strong&gt; pode ter apenas uma &lt;strong&gt;conta&lt;/strong&gt;, que pode ser conjunta&lt;br&gt;ou não com outro &lt;strong&gt;cliente&lt;/strong&gt;. Cada &lt;strong&gt;conta&lt;/strong&gt; poderá ter um ou mais &lt;strong&gt;cartões&lt;/strong&gt; associados a mesma. É necessário registar&lt;br&gt;todos os &lt;strong&gt;movimentos&lt;/strong&gt; de cada &lt;strong&gt;cartão&lt;/strong&gt;, guardando o &lt;u&gt;valor&lt;/u&gt;, a &lt;u&gt;data e hora&lt;/u&gt;, o &lt;u&gt;tipo do movimento&lt;/u&gt; e o &lt;strong&gt;&lt;u&gt;TPA&lt;/u&gt;&lt;/strong&gt;&lt;u&gt; associado&lt;/u&gt;&lt;br&gt;&lt;u&gt;ao movimento&lt;/u&gt;. Além disso, alguns dados dos &lt;strong&gt;TPA&lt;/strong&gt;s precisam ser armazenados, como o &lt;u&gt;código de autorização&lt;/u&gt;&lt;br&gt;&lt;u&gt;individual&lt;/u&gt;, a &lt;u&gt;empresa a qual pertence&lt;/u&gt; e o &lt;u&gt;local geográfico aproximado&lt;/u&gt;.&lt;/span&gt;&lt;/div&gt;" style="text;html=1;align=left;verticalAlign=middle;resizable=0;points=[];autosize=1;strokeColor=none;fillColor=none;" vertex="1" parent="1">
          <mxGeometry x="-760" y="40" width="650" height="100" as="geometry" />
        </mxCell>
        <mxCell id="2qFl4cRUN8Z0rGfDcWHH-1" value="Cliente" style="whiteSpace=wrap;html=1;align=center;" vertex="1" parent="1">
          <mxGeometry x="-754" y="324.5" width="110" height="40" as="geometry" />
        </mxCell>
        <mxCell id="2qFl4cRUN8Z0rGfDcWHH-2" value="Conta" style="whiteSpace=wrap;html=1;align=center;" vertex="1" parent="1">
          <mxGeometry x="-750" y="528.5" width="100" height="40" as="geometry" />
        </mxCell>
        <mxCell id="2qFl4cRUN8Z0rGfDcWHH-3" value="Tem" style="shape=rhombus;perimeter=rhombusPerimeter;whiteSpace=wrap;html=1;align=center;" vertex="1" parent="1">
          <mxGeometry x="-760" y="422.5" width="120" height="60" as="geometry" />
        </mxCell>
        <mxCell id="2qFl4cRUN8Z0rGfDcWHH-4" value="" style="edgeStyle=orthogonalEdgeStyle;rounded=0;orthogonalLoop=1;jettySize=auto;html=1;startArrow=ERmany;startFill=0;endArrow=none;endFill=0;" edge="1" parent="1" source="2qFl4cRUN8Z0rGfDcWHH-1" target="2qFl4cRUN8Z0rGfDcWHH-3">
          <mxGeometry relative="1" as="geometry">
            <mxPoint x="-695.8299999999999" y="364.5" as="sourcePoint" />
            <mxPoint x="-695.8299999999999" y="414.5" as="targetPoint" />
            <Array as="points">
              <mxPoint x="-700" y="394.5" />
              <mxPoint x="-700" y="394.5" />
            </Array>
          </mxGeometry>
        </mxCell>
        <mxCell id="2qFl4cRUN8Z0rGfDcWHH-5" value="" style="rounded=0;orthogonalLoop=1;jettySize=auto;html=1;endArrow=ERone;endFill=0;exitX=0.5;exitY=1;exitDx=0;exitDy=0;edgeStyle=orthogonalEdgeStyle;" edge="1" parent="1" source="2qFl4cRUN8Z0rGfDcWHH-3" target="2qFl4cRUN8Z0rGfDcWHH-2">
          <mxGeometry relative="1" as="geometry">
            <mxPoint x="-650" y="504.5" as="sourcePoint" />
            <mxPoint x="-650" y="490" as="targetPoint" />
            <Array as="points" />
          </mxGeometry>
        </mxCell>
        <mxCell id="2qFl4cRUN8Z0rGfDcWHH-6" value="Tem" style="shape=rhombus;perimeter=rhombusPerimeter;whiteSpace=wrap;html=1;align=center;" vertex="1" parent="1">
          <mxGeometry x="-553" y="518.5" width="120" height="60" as="geometry" />
        </mxCell>
        <mxCell id="2qFl4cRUN8Z0rGfDcWHH-7" value="Cartão" style="whiteSpace=wrap;html=1;align=center;" vertex="1" parent="1">
          <mxGeometry x="-316" y="528.5" width="100" height="40" as="geometry" />
        </mxCell>
        <mxCell id="2qFl4cRUN8Z0rGfDcWHH-8" value="" style="rounded=0;orthogonalLoop=1;jettySize=auto;html=1;endArrow=ERone;endFill=0;exitX=0;exitY=0.5;exitDx=0;exitDy=0;edgeStyle=orthogonalEdgeStyle;entryX=1;entryY=0.5;entryDx=0;entryDy=0;" edge="1" parent="1" source="2qFl4cRUN8Z0rGfDcWHH-6" target="2qFl4cRUN8Z0rGfDcWHH-2">
          <mxGeometry relative="1" as="geometry">
            <mxPoint x="-690" y="486.5" as="sourcePoint" />
            <mxPoint x="-550" y="448.5" as="targetPoint" />
            <Array as="points">
              <mxPoint x="-610" y="548.5" />
              <mxPoint x="-610" y="548.5" />
            </Array>
          </mxGeometry>
        </mxCell>
        <mxCell id="2qFl4cRUN8Z0rGfDcWHH-9" value="" style="edgeStyle=orthogonalEdgeStyle;rounded=0;orthogonalLoop=1;jettySize=auto;html=1;startArrow=ERmany;startFill=0;endArrow=none;endFill=0;exitX=0;exitY=0.5;exitDx=0;exitDy=0;entryX=1;entryY=0.5;entryDx=0;entryDy=0;" edge="1" parent="1" source="2qFl4cRUN8Z0rGfDcWHH-7" target="2qFl4cRUN8Z0rGfDcWHH-6">
          <mxGeometry relative="1" as="geometry">
            <mxPoint x="-690" y="368.5" as="sourcePoint" />
            <mxPoint x="-460" y="548.5" as="targetPoint" />
            <Array as="points">
              <mxPoint x="-380" y="548.5" />
              <mxPoint x="-380" y="548.5" />
            </Array>
          </mxGeometry>
        </mxCell>
        <mxCell id="2qFl4cRUN8Z0rGfDcWHH-10" value="Tem" style="shape=rhombus;perimeter=rhombusPerimeter;whiteSpace=wrap;html=1;align=center;" vertex="1" parent="1">
          <mxGeometry x="-326" y="424.5" width="120" height="60" as="geometry" />
        </mxCell>
        <mxCell id="2qFl4cRUN8Z0rGfDcWHH-11" value="Movimento" style="whiteSpace=wrap;html=1;align=center;" vertex="1" parent="1">
          <mxGeometry x="-316" y="325.5" width="100" height="40" as="geometry" />
        </mxCell>
        <mxCell id="2qFl4cRUN8Z0rGfDcWHH-12" value="" style="rounded=0;orthogonalLoop=1;jettySize=auto;html=1;endArrow=ERone;endFill=0;exitX=0.5;exitY=1;exitDx=0;exitDy=0;edgeStyle=orthogonalEdgeStyle;entryX=0.5;entryY=0;entryDx=0;entryDy=0;" edge="1" parent="1" source="2qFl4cRUN8Z0rGfDcWHH-10" target="2qFl4cRUN8Z0rGfDcWHH-7">
          <mxGeometry relative="1" as="geometry">
            <mxPoint x="-536" y="584.5" as="sourcePoint" />
            <mxPoint x="-616" y="584.5" as="targetPoint" />
            <Array as="points" />
          </mxGeometry>
        </mxCell>
        <mxCell id="2qFl4cRUN8Z0rGfDcWHH-13" value="" style="edgeStyle=orthogonalEdgeStyle;rounded=0;orthogonalLoop=1;jettySize=auto;html=1;startArrow=ERmany;startFill=0;endArrow=none;endFill=0;exitX=0.5;exitY=1;exitDx=0;exitDy=0;entryX=0.5;entryY=0;entryDx=0;entryDy=0;" edge="1" parent="1" source="2qFl4cRUN8Z0rGfDcWHH-11" target="2qFl4cRUN8Z0rGfDcWHH-10">
          <mxGeometry relative="1" as="geometry">
            <mxPoint x="-666" y="374.5" as="sourcePoint" />
            <mxPoint x="-666" y="432.5" as="targetPoint" />
            <Array as="points">
              <mxPoint x="-266" y="384.5" />
              <mxPoint x="-266" y="384.5" />
            </Array>
          </mxGeometry>
        </mxCell>
        <mxCell id="2qFl4cRUN8Z0rGfDcWHH-14" value="TPA" style="whiteSpace=wrap;html=1;align=center;" vertex="1" parent="1">
          <mxGeometry x="-523" y="245.5" width="100" height="40" as="geometry" />
        </mxCell>
        <mxCell id="qGjKrO5ul_WcJYfMUCkK-3" value="Valor" style="ellipse;whiteSpace=wrap;html=1;align=center;" vertex="1" parent="1">
          <mxGeometry x="-183" y="264.5" width="100" height="40" as="geometry" />
        </mxCell>
        <mxCell id="qGjKrO5ul_WcJYfMUCkK-4" value="Data e Hora" style="ellipse;whiteSpace=wrap;html=1;align=center;" vertex="1" parent="1">
          <mxGeometry x="-183" y="324.5" width="100" height="40" as="geometry" />
        </mxCell>
        <mxCell id="qGjKrO5ul_WcJYfMUCkK-5" value="Tipo de Movimento" style="ellipse;whiteSpace=wrap;html=1;align=center;" vertex="1" parent="1">
          <mxGeometry x="-183" y="394.5" width="100" height="40" as="geometry" />
        </mxCell>
        <mxCell id="qGjKrO5ul_WcJYfMUCkK-12" style="rounded=0;orthogonalLoop=1;jettySize=auto;html=1;exitX=1;exitY=1;exitDx=0;exitDy=0;endArrow=none;endFill=0;" edge="1" parent="1" source="qGjKrO5ul_WcJYfMUCkK-6" target="2qFl4cRUN8Z0rGfDcWHH-14">
          <mxGeometry relative="1" as="geometry" />
        </mxCell>
        <mxCell id="qGjKrO5ul_WcJYfMUCkK-6" value="Código de autorização individual" style="ellipse;whiteSpace=wrap;html=1;align=center;" vertex="1" parent="1">
          <mxGeometry x="-670" y="177.5" width="117" height="50" as="geometry" />
        </mxCell>
        <mxCell id="qGjKrO5ul_WcJYfMUCkK-7" value="Empresa" style="ellipse;whiteSpace=wrap;html=1;align=center;" vertex="1" parent="1">
          <mxGeometry x="-520" y="177.5" width="100" height="40" as="geometry" />
        </mxCell>
        <mxCell id="qGjKrO5ul_WcJYfMUCkK-8" value="Local geográfico aproximado" style="ellipse;whiteSpace=wrap;html=1;align=center;" vertex="1" parent="1">
          <mxGeometry x="-390" y="170" width="110" height="55" as="geometry" />
        </mxCell>
        <mxCell id="qGjKrO5ul_WcJYfMUCkK-9" value="Permite" style="shape=rhombus;perimeter=rhombusPerimeter;whiteSpace=wrap;html=1;align=center;" vertex="1" parent="1">
          <mxGeometry x="-533" y="315.5" width="120" height="60" as="geometry" />
        </mxCell>
        <mxCell id="qGjKrO5ul_WcJYfMUCkK-10" value="" style="rounded=0;orthogonalLoop=1;jettySize=auto;html=1;endArrow=ERone;endFill=0;exitX=0.5;exitY=0;exitDx=0;exitDy=0;edgeStyle=orthogonalEdgeStyle;entryX=0.5;entryY=1;entryDx=0;entryDy=0;" edge="1" parent="1" source="qGjKrO5ul_WcJYfMUCkK-9" target="2qFl4cRUN8Z0rGfDcWHH-14">
          <mxGeometry relative="1" as="geometry">
            <mxPoint x="-680" y="353.5" as="sourcePoint" />
            <mxPoint x="-290" y="295.5" as="targetPoint" />
          </mxGeometry>
        </mxCell>
        <mxCell id="qGjKrO5ul_WcJYfMUCkK-11" value="" style="rounded=0;orthogonalLoop=1;jettySize=auto;html=1;startArrow=ERmany;startFill=0;endArrow=none;endFill=0;exitX=0;exitY=0.5;exitDx=0;exitDy=0;entryX=1;entryY=0.5;entryDx=0;entryDy=0;edgeStyle=orthogonalEdgeStyle;" edge="1" parent="1" source="2qFl4cRUN8Z0rGfDcWHH-11" target="qGjKrO5ul_WcJYfMUCkK-9">
          <mxGeometry relative="1" as="geometry">
            <mxPoint x="-306" y="394.5" as="sourcePoint" />
            <mxPoint x="-450" y="394.5" as="targetPoint" />
          </mxGeometry>
        </mxCell>
        <mxCell id="qGjKrO5ul_WcJYfMUCkK-13" style="rounded=0;orthogonalLoop=1;jettySize=auto;html=1;exitX=0.5;exitY=1;exitDx=0;exitDy=0;endArrow=none;endFill=0;entryX=0.5;entryY=0;entryDx=0;entryDy=0;" edge="1" parent="1" source="qGjKrO5ul_WcJYfMUCkK-7" target="2qFl4cRUN8Z0rGfDcWHH-14">
          <mxGeometry relative="1" as="geometry">
            <mxPoint x="-591" y="215.5" as="sourcePoint" />
            <mxPoint x="-506" y="255.5" as="targetPoint" />
          </mxGeometry>
        </mxCell>
        <mxCell id="qGjKrO5ul_WcJYfMUCkK-14" style="rounded=0;orthogonalLoop=1;jettySize=auto;html=1;exitX=0;exitY=1;exitDx=0;exitDy=0;endArrow=none;endFill=0;entryX=0.75;entryY=0;entryDx=0;entryDy=0;" edge="1" parent="1" source="qGjKrO5ul_WcJYfMUCkK-8" target="2qFl4cRUN8Z0rGfDcWHH-14">
          <mxGeometry relative="1" as="geometry">
            <mxPoint x="-460" y="210.5" as="sourcePoint" />
            <mxPoint x="-463" y="255.5" as="targetPoint" />
          </mxGeometry>
        </mxCell>
        <mxCell id="qGjKrO5ul_WcJYfMUCkK-15" style="rounded=0;orthogonalLoop=1;jettySize=auto;html=1;exitX=0;exitY=0.5;exitDx=0;exitDy=0;endArrow=none;endFill=0;entryX=0.5;entryY=0;entryDx=0;entryDy=0;" edge="1" parent="1" source="qGjKrO5ul_WcJYfMUCkK-3" target="2qFl4cRUN8Z0rGfDcWHH-11">
          <mxGeometry relative="1" as="geometry">
            <mxPoint x="-450" y="179.5" as="sourcePoint" />
            <mxPoint x="-453" y="224.5" as="targetPoint" />
          </mxGeometry>
        </mxCell>
        <mxCell id="qGjKrO5ul_WcJYfMUCkK-16" style="rounded=0;orthogonalLoop=1;jettySize=auto;html=1;exitX=0;exitY=0.5;exitDx=0;exitDy=0;endArrow=none;endFill=0;" edge="1" parent="1" source="qGjKrO5ul_WcJYfMUCkK-4" target="2qFl4cRUN8Z0rGfDcWHH-11">
          <mxGeometry relative="1" as="geometry">
            <mxPoint x="-440" y="189.5" as="sourcePoint" />
            <mxPoint x="-443" y="234.5" as="targetPoint" />
          </mxGeometry>
        </mxCell>
        <mxCell id="qGjKrO5ul_WcJYfMUCkK-17" style="rounded=0;orthogonalLoop=1;jettySize=auto;html=1;exitX=0;exitY=0.5;exitDx=0;exitDy=0;endArrow=none;endFill=0;entryX=0.75;entryY=1;entryDx=0;entryDy=0;" edge="1" parent="1" source="qGjKrO5ul_WcJYfMUCkK-5" target="2qFl4cRUN8Z0rGfDcWHH-11">
          <mxGeometry relative="1" as="geometry">
            <mxPoint x="-430" y="199.5" as="sourcePoint" />
            <mxPoint x="-433" y="244.5" as="targetPoint" />
          </mxGeometry>
        </mxCell>
        <mxCell id="lQnL0QaqAJkKP_tVyNBw-1" value="Cliente" style="shape=table;startSize=30;container=1;collapsible=1;childLayout=tableLayout;fixedRows=1;rowLines=0;fontStyle=1;align=center;resizeLast=1;html=1;" vertex="1" parent="1">
          <mxGeometry x="-760" y="650" width="180" height="180" as="geometry" />
        </mxCell>
        <mxCell id="lQnL0QaqAJkKP_tVyNBw-2" value="" style="shape=tableRow;horizontal=0;startSize=0;swimlaneHead=0;swimlaneBody=0;fillColor=none;collapsible=0;dropTarget=0;points=[[0,0.5],[1,0.5]];portConstraint=eastwest;top=0;left=0;right=0;bottom=1;" vertex="1" parent="lQnL0QaqAJkKP_tVyNBw-1">
          <mxGeometry y="30" width="180" height="30" as="geometry" />
        </mxCell>
        <mxCell id="lQnL0QaqAJkKP_tVyNBw-3" value="PK" style="shape=partialRectangle;connectable=0;fillColor=none;top=0;left=0;bottom=0;right=0;fontStyle=1;overflow=hidden;whiteSpace=wrap;html=1;" vertex="1" parent="lQnL0QaqAJkKP_tVyNBw-2">
          <mxGeometry width="30" height="30" as="geometry">
            <mxRectangle width="30" height="30" as="alternateBounds" />
          </mxGeometry>
        </mxCell>
        <mxCell id="lQnL0QaqAJkKP_tVyNBw-4" value="nif" style="shape=partialRectangle;connectable=0;fillColor=none;top=0;left=0;bottom=0;right=0;align=left;spacingLeft=6;fontStyle=5;overflow=hidden;whiteSpace=wrap;html=1;" vertex="1" parent="lQnL0QaqAJkKP_tVyNBw-2">
          <mxGeometry x="30" width="150" height="30" as="geometry">
            <mxRectangle width="150" height="30" as="alternateBounds" />
          </mxGeometry>
        </mxCell>
        <mxCell id="lQnL0QaqAJkKP_tVyNBw-5" value="" style="shape=tableRow;horizontal=0;startSize=0;swimlaneHead=0;swimlaneBody=0;fillColor=none;collapsible=0;dropTarget=0;points=[[0,0.5],[1,0.5]];portConstraint=eastwest;top=0;left=0;right=0;bottom=0;" vertex="1" parent="lQnL0QaqAJkKP_tVyNBw-1">
          <mxGeometry y="60" width="180" height="30" as="geometry" />
        </mxCell>
        <mxCell id="lQnL0QaqAJkKP_tVyNBw-6" value="" style="shape=partialRectangle;connectable=0;fillColor=none;top=0;left=0;bottom=0;right=0;editable=1;overflow=hidden;whiteSpace=wrap;html=1;" vertex="1" parent="lQnL0QaqAJkKP_tVyNBw-5">
          <mxGeometry width="30" height="30" as="geometry">
            <mxRectangle width="30" height="30" as="alternateBounds" />
          </mxGeometry>
        </mxCell>
        <mxCell id="lQnL0QaqAJkKP_tVyNBw-7" value="nome" style="shape=partialRectangle;connectable=0;fillColor=none;top=0;left=0;bottom=0;right=0;align=left;spacingLeft=6;overflow=hidden;whiteSpace=wrap;html=1;" vertex="1" parent="lQnL0QaqAJkKP_tVyNBw-5">
          <mxGeometry x="30" width="150" height="30" as="geometry">
            <mxRectangle width="150" height="30" as="alternateBounds" />
          </mxGeometry>
        </mxCell>
        <mxCell id="lQnL0QaqAJkKP_tVyNBw-8" value="" style="shape=tableRow;horizontal=0;startSize=0;swimlaneHead=0;swimlaneBody=0;fillColor=none;collapsible=0;dropTarget=0;points=[[0,0.5],[1,0.5]];portConstraint=eastwest;top=0;left=0;right=0;bottom=0;" vertex="1" parent="lQnL0QaqAJkKP_tVyNBw-1">
          <mxGeometry y="90" width="180" height="30" as="geometry" />
        </mxCell>
        <mxCell id="lQnL0QaqAJkKP_tVyNBw-9" value="" style="shape=partialRectangle;connectable=0;fillColor=none;top=0;left=0;bottom=0;right=0;editable=1;overflow=hidden;whiteSpace=wrap;html=1;" vertex="1" parent="lQnL0QaqAJkKP_tVyNBw-8">
          <mxGeometry width="30" height="30" as="geometry">
            <mxRectangle width="30" height="30" as="alternateBounds" />
          </mxGeometry>
        </mxCell>
        <mxCell id="lQnL0QaqAJkKP_tVyNBw-10" value="morada" style="shape=partialRectangle;connectable=0;fillColor=none;top=0;left=0;bottom=0;right=0;align=left;spacingLeft=6;overflow=hidden;whiteSpace=wrap;html=1;" vertex="1" parent="lQnL0QaqAJkKP_tVyNBw-8">
          <mxGeometry x="30" width="150" height="30" as="geometry">
            <mxRectangle width="150" height="30" as="alternateBounds" />
          </mxGeometry>
        </mxCell>
        <mxCell id="9bmH8-nR4NWNgXwJUcmB-1" value="" style="shape=tableRow;horizontal=0;startSize=0;swimlaneHead=0;swimlaneBody=0;fillColor=none;collapsible=0;dropTarget=0;points=[[0,0.5],[1,0.5]];portConstraint=eastwest;top=0;left=0;right=0;bottom=0;" vertex="1" parent="lQnL0QaqAJkKP_tVyNBw-1">
          <mxGeometry y="120" width="180" height="30" as="geometry" />
        </mxCell>
        <mxCell id="9bmH8-nR4NWNgXwJUcmB-2" value="" style="shape=partialRectangle;connectable=0;fillColor=none;top=0;left=0;bottom=0;right=0;editable=1;overflow=hidden;whiteSpace=wrap;html=1;" vertex="1" parent="9bmH8-nR4NWNgXwJUcmB-1">
          <mxGeometry width="30" height="30" as="geometry">
            <mxRectangle width="30" height="30" as="alternateBounds" />
          </mxGeometry>
        </mxCell>
        <mxCell id="9bmH8-nR4NWNgXwJUcmB-3" value="&lt;font color=&quot;#b8b8b8&quot;&gt;titular&lt;/font&gt;" style="shape=partialRectangle;connectable=0;fillColor=none;top=0;left=0;bottom=0;right=0;align=left;spacingLeft=6;overflow=hidden;whiteSpace=wrap;html=1;" vertex="1" parent="9bmH8-nR4NWNgXwJUcmB-1">
          <mxGeometry x="30" width="150" height="30" as="geometry">
            <mxRectangle width="150" height="30" as="alternateBounds" />
          </mxGeometry>
        </mxCell>
        <mxCell id="lQnL0QaqAJkKP_tVyNBw-11" value="" style="shape=tableRow;horizontal=0;startSize=0;swimlaneHead=0;swimlaneBody=0;fillColor=none;collapsible=0;dropTarget=0;points=[[0,0.5],[1,0.5]];portConstraint=eastwest;top=0;left=0;right=0;bottom=0;" vertex="1" parent="lQnL0QaqAJkKP_tVyNBw-1">
          <mxGeometry y="150" width="180" height="30" as="geometry" />
        </mxCell>
        <mxCell id="lQnL0QaqAJkKP_tVyNBw-12" value="FK" style="shape=partialRectangle;connectable=0;fillColor=none;top=0;left=0;bottom=0;right=0;editable=1;overflow=hidden;whiteSpace=wrap;html=1;" vertex="1" parent="lQnL0QaqAJkKP_tVyNBw-11">
          <mxGeometry width="30" height="30" as="geometry">
            <mxRectangle width="30" height="30" as="alternateBounds" />
          </mxGeometry>
        </mxCell>
        <mxCell id="lQnL0QaqAJkKP_tVyNBw-13" value="conta" style="shape=partialRectangle;connectable=0;fillColor=none;top=0;left=0;bottom=0;right=0;align=left;spacingLeft=6;overflow=hidden;whiteSpace=wrap;html=1;" vertex="1" parent="lQnL0QaqAJkKP_tVyNBw-11">
          <mxGeometry x="30" width="150" height="30" as="geometry">
            <mxRectangle width="150" height="30" as="alternateBounds" />
          </mxGeometry>
        </mxCell>
        <mxCell id="lQnL0QaqAJkKP_tVyNBw-14" value="Conta" style="shape=table;startSize=30;container=1;collapsible=1;childLayout=tableLayout;fixedRows=1;rowLines=0;fontStyle=1;align=center;resizeLast=1;html=1;" vertex="1" parent="1">
          <mxGeometry x="-506" y="650" width="180" height="120" as="geometry" />
        </mxCell>
        <mxCell id="lQnL0QaqAJkKP_tVyNBw-15" value="" style="shape=tableRow;horizontal=0;startSize=0;swimlaneHead=0;swimlaneBody=0;fillColor=none;collapsible=0;dropTarget=0;points=[[0,0.5],[1,0.5]];portConstraint=eastwest;top=0;left=0;right=0;bottom=1;" vertex="1" parent="lQnL0QaqAJkKP_tVyNBw-14">
          <mxGeometry y="30" width="180" height="30" as="geometry" />
        </mxCell>
        <mxCell id="lQnL0QaqAJkKP_tVyNBw-16" value="PK" style="shape=partialRectangle;connectable=0;fillColor=none;top=0;left=0;bottom=0;right=0;fontStyle=1;overflow=hidden;whiteSpace=wrap;html=1;" vertex="1" parent="lQnL0QaqAJkKP_tVyNBw-15">
          <mxGeometry width="30" height="30" as="geometry">
            <mxRectangle width="30" height="30" as="alternateBounds" />
          </mxGeometry>
        </mxCell>
        <mxCell id="lQnL0QaqAJkKP_tVyNBw-17" value="numConta" style="shape=partialRectangle;connectable=0;fillColor=none;top=0;left=0;bottom=0;right=0;align=left;spacingLeft=6;fontStyle=5;overflow=hidden;whiteSpace=wrap;html=1;" vertex="1" parent="lQnL0QaqAJkKP_tVyNBw-15">
          <mxGeometry x="30" width="150" height="30" as="geometry">
            <mxRectangle width="150" height="30" as="alternateBounds" />
          </mxGeometry>
        </mxCell>
        <mxCell id="lQnL0QaqAJkKP_tVyNBw-18" value="" style="shape=tableRow;horizontal=0;startSize=0;swimlaneHead=0;swimlaneBody=0;fillColor=none;collapsible=0;dropTarget=0;points=[[0,0.5],[1,0.5]];portConstraint=eastwest;top=0;left=0;right=0;bottom=0;" vertex="1" parent="lQnL0QaqAJkKP_tVyNBw-14">
          <mxGeometry y="60" width="180" height="30" as="geometry" />
        </mxCell>
        <mxCell id="lQnL0QaqAJkKP_tVyNBw-19" value="" style="shape=partialRectangle;connectable=0;fillColor=none;top=0;left=0;bottom=0;right=0;editable=1;overflow=hidden;whiteSpace=wrap;html=1;" vertex="1" parent="lQnL0QaqAJkKP_tVyNBw-18">
          <mxGeometry width="30" height="30" as="geometry">
            <mxRectangle width="30" height="30" as="alternateBounds" />
          </mxGeometry>
        </mxCell>
        <mxCell id="lQnL0QaqAJkKP_tVyNBw-20" value="saldo" style="shape=partialRectangle;connectable=0;fillColor=none;top=0;left=0;bottom=0;right=0;align=left;spacingLeft=6;overflow=hidden;whiteSpace=wrap;html=1;" vertex="1" parent="lQnL0QaqAJkKP_tVyNBw-18">
          <mxGeometry x="30" width="150" height="30" as="geometry">
            <mxRectangle width="150" height="30" as="alternateBounds" />
          </mxGeometry>
        </mxCell>
        <mxCell id="lQnL0QaqAJkKP_tVyNBw-21" value="" style="shape=tableRow;horizontal=0;startSize=0;swimlaneHead=0;swimlaneBody=0;fillColor=none;collapsible=0;dropTarget=0;points=[[0,0.5],[1,0.5]];portConstraint=eastwest;top=0;left=0;right=0;bottom=0;" vertex="1" parent="lQnL0QaqAJkKP_tVyNBw-14">
          <mxGeometry y="90" width="180" height="30" as="geometry" />
        </mxCell>
        <mxCell id="lQnL0QaqAJkKP_tVyNBw-22" value="" style="shape=partialRectangle;connectable=0;fillColor=none;top=0;left=0;bottom=0;right=0;editable=1;overflow=hidden;whiteSpace=wrap;html=1;" vertex="1" parent="lQnL0QaqAJkKP_tVyNBw-21">
          <mxGeometry width="30" height="30" as="geometry">
            <mxRectangle width="30" height="30" as="alternateBounds" />
          </mxGeometry>
        </mxCell>
        <mxCell id="lQnL0QaqAJkKP_tVyNBw-23" value="movimentos" style="shape=partialRectangle;connectable=0;fillColor=none;top=0;left=0;bottom=0;right=0;align=left;spacingLeft=6;overflow=hidden;whiteSpace=wrap;html=1;" vertex="1" parent="lQnL0QaqAJkKP_tVyNBw-21">
          <mxGeometry x="30" width="150" height="30" as="geometry">
            <mxRectangle width="150" height="30" as="alternateBounds" />
          </mxGeometry>
        </mxCell>
        <mxCell id="lQnL0QaqAJkKP_tVyNBw-27" value="Cartao" style="shape=table;startSize=30;container=1;collapsible=1;childLayout=tableLayout;fixedRows=1;rowLines=0;fontStyle=1;align=center;resizeLast=1;html=1;" vertex="1" parent="1">
          <mxGeometry x="-263" y="650" width="180" height="150" as="geometry" />
        </mxCell>
        <mxCell id="lQnL0QaqAJkKP_tVyNBw-28" value="" style="shape=tableRow;horizontal=0;startSize=0;swimlaneHead=0;swimlaneBody=0;fillColor=none;collapsible=0;dropTarget=0;points=[[0,0.5],[1,0.5]];portConstraint=eastwest;top=0;left=0;right=0;bottom=1;" vertex="1" parent="lQnL0QaqAJkKP_tVyNBw-27">
          <mxGeometry y="30" width="180" height="30" as="geometry" />
        </mxCell>
        <mxCell id="lQnL0QaqAJkKP_tVyNBw-29" value="PK" style="shape=partialRectangle;connectable=0;fillColor=none;top=0;left=0;bottom=0;right=0;fontStyle=1;overflow=hidden;whiteSpace=wrap;html=1;" vertex="1" parent="lQnL0QaqAJkKP_tVyNBw-28">
          <mxGeometry width="30" height="30" as="geometry">
            <mxRectangle width="30" height="30" as="alternateBounds" />
          </mxGeometry>
        </mxCell>
        <mxCell id="lQnL0QaqAJkKP_tVyNBw-30" value="numCartao" style="shape=partialRectangle;connectable=0;fillColor=none;top=0;left=0;bottom=0;right=0;align=left;spacingLeft=6;fontStyle=5;overflow=hidden;whiteSpace=wrap;html=1;" vertex="1" parent="lQnL0QaqAJkKP_tVyNBw-28">
          <mxGeometry x="30" width="150" height="30" as="geometry">
            <mxRectangle width="150" height="30" as="alternateBounds" />
          </mxGeometry>
        </mxCell>
        <mxCell id="lQnL0QaqAJkKP_tVyNBw-31" value="" style="shape=tableRow;horizontal=0;startSize=0;swimlaneHead=0;swimlaneBody=0;fillColor=none;collapsible=0;dropTarget=0;points=[[0,0.5],[1,0.5]];portConstraint=eastwest;top=0;left=0;right=0;bottom=0;" vertex="1" parent="lQnL0QaqAJkKP_tVyNBw-27">
          <mxGeometry y="60" width="180" height="30" as="geometry" />
        </mxCell>
        <mxCell id="lQnL0QaqAJkKP_tVyNBw-32" value="" style="shape=partialRectangle;connectable=0;fillColor=none;top=0;left=0;bottom=0;right=0;editable=1;overflow=hidden;whiteSpace=wrap;html=1;" vertex="1" parent="lQnL0QaqAJkKP_tVyNBw-31">
          <mxGeometry width="30" height="30" as="geometry">
            <mxRectangle width="30" height="30" as="alternateBounds" />
          </mxGeometry>
        </mxCell>
        <mxCell id="lQnL0QaqAJkKP_tVyNBw-33" value="tipo" style="shape=partialRectangle;connectable=0;fillColor=none;top=0;left=0;bottom=0;right=0;align=left;spacingLeft=6;overflow=hidden;whiteSpace=wrap;html=1;" vertex="1" parent="lQnL0QaqAJkKP_tVyNBw-31">
          <mxGeometry x="30" width="150" height="30" as="geometry">
            <mxRectangle width="150" height="30" as="alternateBounds" />
          </mxGeometry>
        </mxCell>
        <mxCell id="lQnL0QaqAJkKP_tVyNBw-34" value="" style="shape=tableRow;horizontal=0;startSize=0;swimlaneHead=0;swimlaneBody=0;fillColor=none;collapsible=0;dropTarget=0;points=[[0,0.5],[1,0.5]];portConstraint=eastwest;top=0;left=0;right=0;bottom=0;" vertex="1" parent="lQnL0QaqAJkKP_tVyNBw-27">
          <mxGeometry y="90" width="180" height="30" as="geometry" />
        </mxCell>
        <mxCell id="lQnL0QaqAJkKP_tVyNBw-35" value="" style="shape=partialRectangle;connectable=0;fillColor=none;top=0;left=0;bottom=0;right=0;editable=1;overflow=hidden;whiteSpace=wrap;html=1;" vertex="1" parent="lQnL0QaqAJkKP_tVyNBw-34">
          <mxGeometry width="30" height="30" as="geometry">
            <mxRectangle width="30" height="30" as="alternateBounds" />
          </mxGeometry>
        </mxCell>
        <mxCell id="lQnL0QaqAJkKP_tVyNBw-36" value="pin" style="shape=partialRectangle;connectable=0;fillColor=none;top=0;left=0;bottom=0;right=0;align=left;spacingLeft=6;overflow=hidden;whiteSpace=wrap;html=1;" vertex="1" parent="lQnL0QaqAJkKP_tVyNBw-34">
          <mxGeometry x="30" width="150" height="30" as="geometry">
            <mxRectangle width="150" height="30" as="alternateBounds" />
          </mxGeometry>
        </mxCell>
        <mxCell id="lQnL0QaqAJkKP_tVyNBw-37" value="" style="shape=tableRow;horizontal=0;startSize=0;swimlaneHead=0;swimlaneBody=0;fillColor=none;collapsible=0;dropTarget=0;points=[[0,0.5],[1,0.5]];portConstraint=eastwest;top=0;left=0;right=0;bottom=0;" vertex="1" parent="lQnL0QaqAJkKP_tVyNBw-27">
          <mxGeometry y="120" width="180" height="30" as="geometry" />
        </mxCell>
        <mxCell id="lQnL0QaqAJkKP_tVyNBw-38" value="FK" style="shape=partialRectangle;connectable=0;fillColor=none;top=0;left=0;bottom=0;right=0;editable=1;overflow=hidden;whiteSpace=wrap;html=1;" vertex="1" parent="lQnL0QaqAJkKP_tVyNBw-37">
          <mxGeometry width="30" height="30" as="geometry">
            <mxRectangle width="30" height="30" as="alternateBounds" />
          </mxGeometry>
        </mxCell>
        <mxCell id="lQnL0QaqAJkKP_tVyNBw-39" value="conta" style="shape=partialRectangle;connectable=0;fillColor=none;top=0;left=0;bottom=0;right=0;align=left;spacingLeft=6;overflow=hidden;whiteSpace=wrap;html=1;" vertex="1" parent="lQnL0QaqAJkKP_tVyNBw-37">
          <mxGeometry x="30" width="150" height="30" as="geometry">
            <mxRectangle width="150" height="30" as="alternateBounds" />
          </mxGeometry>
        </mxCell>
        <mxCell id="lQnL0QaqAJkKP_tVyNBw-40" value="Movimento" style="shape=table;startSize=30;container=1;collapsible=1;childLayout=tableLayout;fixedRows=1;rowLines=0;fontStyle=1;align=center;resizeLast=1;html=1;" vertex="1" parent="1">
          <mxGeometry x="-261" y="840" width="180" height="180" as="geometry" />
        </mxCell>
        <mxCell id="lQnL0QaqAJkKP_tVyNBw-41" value="" style="shape=tableRow;horizontal=0;startSize=0;swimlaneHead=0;swimlaneBody=0;fillColor=none;collapsible=0;dropTarget=0;points=[[0,0.5],[1,0.5]];portConstraint=eastwest;top=0;left=0;right=0;bottom=1;" vertex="1" parent="lQnL0QaqAJkKP_tVyNBw-40">
          <mxGeometry y="30" width="180" height="30" as="geometry" />
        </mxCell>
        <mxCell id="lQnL0QaqAJkKP_tVyNBw-42" value="PK" style="shape=partialRectangle;connectable=0;fillColor=none;top=0;left=0;bottom=0;right=0;fontStyle=1;overflow=hidden;whiteSpace=wrap;html=1;" vertex="1" parent="lQnL0QaqAJkKP_tVyNBw-41">
          <mxGeometry width="30" height="30" as="geometry">
            <mxRectangle width="30" height="30" as="alternateBounds" />
          </mxGeometry>
        </mxCell>
        <mxCell id="lQnL0QaqAJkKP_tVyNBw-43" value="id" style="shape=partialRectangle;connectable=0;fillColor=none;top=0;left=0;bottom=0;right=0;align=left;spacingLeft=6;fontStyle=5;overflow=hidden;whiteSpace=wrap;html=1;" vertex="1" parent="lQnL0QaqAJkKP_tVyNBw-41">
          <mxGeometry x="30" width="150" height="30" as="geometry">
            <mxRectangle width="150" height="30" as="alternateBounds" />
          </mxGeometry>
        </mxCell>
        <mxCell id="lQnL0QaqAJkKP_tVyNBw-44" value="" style="shape=tableRow;horizontal=0;startSize=0;swimlaneHead=0;swimlaneBody=0;fillColor=none;collapsible=0;dropTarget=0;points=[[0,0.5],[1,0.5]];portConstraint=eastwest;top=0;left=0;right=0;bottom=0;" vertex="1" parent="lQnL0QaqAJkKP_tVyNBw-40">
          <mxGeometry y="60" width="180" height="30" as="geometry" />
        </mxCell>
        <mxCell id="lQnL0QaqAJkKP_tVyNBw-45" value="" style="shape=partialRectangle;connectable=0;fillColor=none;top=0;left=0;bottom=0;right=0;editable=1;overflow=hidden;whiteSpace=wrap;html=1;" vertex="1" parent="lQnL0QaqAJkKP_tVyNBw-44">
          <mxGeometry width="30" height="30" as="geometry">
            <mxRectangle width="30" height="30" as="alternateBounds" />
          </mxGeometry>
        </mxCell>
        <mxCell id="lQnL0QaqAJkKP_tVyNBw-46" value="valor" style="shape=partialRectangle;connectable=0;fillColor=none;top=0;left=0;bottom=0;right=0;align=left;spacingLeft=6;overflow=hidden;whiteSpace=wrap;html=1;" vertex="1" parent="lQnL0QaqAJkKP_tVyNBw-44">
          <mxGeometry x="30" width="150" height="30" as="geometry">
            <mxRectangle width="150" height="30" as="alternateBounds" />
          </mxGeometry>
        </mxCell>
        <mxCell id="lQnL0QaqAJkKP_tVyNBw-47" value="" style="shape=tableRow;horizontal=0;startSize=0;swimlaneHead=0;swimlaneBody=0;fillColor=none;collapsible=0;dropTarget=0;points=[[0,0.5],[1,0.5]];portConstraint=eastwest;top=0;left=0;right=0;bottom=0;" vertex="1" parent="lQnL0QaqAJkKP_tVyNBw-40">
          <mxGeometry y="90" width="180" height="30" as="geometry" />
        </mxCell>
        <mxCell id="lQnL0QaqAJkKP_tVyNBw-48" value="" style="shape=partialRectangle;connectable=0;fillColor=none;top=0;left=0;bottom=0;right=0;editable=1;overflow=hidden;whiteSpace=wrap;html=1;" vertex="1" parent="lQnL0QaqAJkKP_tVyNBw-47">
          <mxGeometry width="30" height="30" as="geometry">
            <mxRectangle width="30" height="30" as="alternateBounds" />
          </mxGeometry>
        </mxCell>
        <mxCell id="lQnL0QaqAJkKP_tVyNBw-49" value="dataHora" style="shape=partialRectangle;connectable=0;fillColor=none;top=0;left=0;bottom=0;right=0;align=left;spacingLeft=6;overflow=hidden;whiteSpace=wrap;html=1;" vertex="1" parent="lQnL0QaqAJkKP_tVyNBw-47">
          <mxGeometry x="30" width="150" height="30" as="geometry">
            <mxRectangle width="150" height="30" as="alternateBounds" />
          </mxGeometry>
        </mxCell>
        <mxCell id="lQnL0QaqAJkKP_tVyNBw-50" value="" style="shape=tableRow;horizontal=0;startSize=0;swimlaneHead=0;swimlaneBody=0;fillColor=none;collapsible=0;dropTarget=0;points=[[0,0.5],[1,0.5]];portConstraint=eastwest;top=0;left=0;right=0;bottom=0;" vertex="1" parent="lQnL0QaqAJkKP_tVyNBw-40">
          <mxGeometry y="120" width="180" height="30" as="geometry" />
        </mxCell>
        <mxCell id="lQnL0QaqAJkKP_tVyNBw-51" value="FK" style="shape=partialRectangle;connectable=0;fillColor=none;top=0;left=0;bottom=0;right=0;editable=1;overflow=hidden;whiteSpace=wrap;html=1;" vertex="1" parent="lQnL0QaqAJkKP_tVyNBw-50">
          <mxGeometry width="30" height="30" as="geometry">
            <mxRectangle width="30" height="30" as="alternateBounds" />
          </mxGeometry>
        </mxCell>
        <mxCell id="lQnL0QaqAJkKP_tVyNBw-52" value="TPA" style="shape=partialRectangle;connectable=0;fillColor=none;top=0;left=0;bottom=0;right=0;align=left;spacingLeft=6;overflow=hidden;whiteSpace=wrap;html=1;" vertex="1" parent="lQnL0QaqAJkKP_tVyNBw-50">
          <mxGeometry x="30" width="150" height="30" as="geometry">
            <mxRectangle width="150" height="30" as="alternateBounds" />
          </mxGeometry>
        </mxCell>
        <mxCell id="OrdLGmlQ31TYxrV25o3v-6" value="" style="shape=tableRow;horizontal=0;startSize=0;swimlaneHead=0;swimlaneBody=0;fillColor=none;collapsible=0;dropTarget=0;points=[[0,0.5],[1,0.5]];portConstraint=eastwest;top=0;left=0;right=0;bottom=0;" vertex="1" parent="lQnL0QaqAJkKP_tVyNBw-40">
          <mxGeometry y="150" width="180" height="30" as="geometry" />
        </mxCell>
        <mxCell id="OrdLGmlQ31TYxrV25o3v-7" value="FK" style="shape=partialRectangle;connectable=0;fillColor=none;top=0;left=0;bottom=0;right=0;editable=1;overflow=hidden;whiteSpace=wrap;html=1;" vertex="1" parent="OrdLGmlQ31TYxrV25o3v-6">
          <mxGeometry width="30" height="30" as="geometry">
            <mxRectangle width="30" height="30" as="alternateBounds" />
          </mxGeometry>
        </mxCell>
        <mxCell id="OrdLGmlQ31TYxrV25o3v-8" value="cartao" style="shape=partialRectangle;connectable=0;fillColor=none;top=0;left=0;bottom=0;right=0;align=left;spacingLeft=6;overflow=hidden;whiteSpace=wrap;html=1;" vertex="1" parent="OrdLGmlQ31TYxrV25o3v-6">
          <mxGeometry x="30" width="150" height="30" as="geometry">
            <mxRectangle width="150" height="30" as="alternateBounds" />
          </mxGeometry>
        </mxCell>
        <mxCell id="lQnL0QaqAJkKP_tVyNBw-53" value="TPA" style="shape=table;startSize=30;container=1;collapsible=1;childLayout=tableLayout;fixedRows=1;rowLines=0;fontStyle=1;align=center;resizeLast=1;html=1;" vertex="1" parent="1">
          <mxGeometry x="-750" y="850" width="180" height="150" as="geometry" />
        </mxCell>
        <mxCell id="lQnL0QaqAJkKP_tVyNBw-54" value="" style="shape=tableRow;horizontal=0;startSize=0;swimlaneHead=0;swimlaneBody=0;fillColor=none;collapsible=0;dropTarget=0;points=[[0,0.5],[1,0.5]];portConstraint=eastwest;top=0;left=0;right=0;bottom=1;" vertex="1" parent="lQnL0QaqAJkKP_tVyNBw-53">
          <mxGeometry y="30" width="180" height="30" as="geometry" />
        </mxCell>
        <mxCell id="lQnL0QaqAJkKP_tVyNBw-55" value="PK" style="shape=partialRectangle;connectable=0;fillColor=none;top=0;left=0;bottom=0;right=0;fontStyle=1;overflow=hidden;whiteSpace=wrap;html=1;" vertex="1" parent="lQnL0QaqAJkKP_tVyNBw-54">
          <mxGeometry width="30" height="30" as="geometry">
            <mxRectangle width="30" height="30" as="alternateBounds" />
          </mxGeometry>
        </mxCell>
        <mxCell id="lQnL0QaqAJkKP_tVyNBw-56" value="id" style="shape=partialRectangle;connectable=0;fillColor=none;top=0;left=0;bottom=0;right=0;align=left;spacingLeft=6;fontStyle=5;overflow=hidden;whiteSpace=wrap;html=1;" vertex="1" parent="lQnL0QaqAJkKP_tVyNBw-54">
          <mxGeometry x="30" width="150" height="30" as="geometry">
            <mxRectangle width="150" height="30" as="alternateBounds" />
          </mxGeometry>
        </mxCell>
        <mxCell id="lQnL0QaqAJkKP_tVyNBw-57" value="" style="shape=tableRow;horizontal=0;startSize=0;swimlaneHead=0;swimlaneBody=0;fillColor=none;collapsible=0;dropTarget=0;points=[[0,0.5],[1,0.5]];portConstraint=eastwest;top=0;left=0;right=0;bottom=0;" vertex="1" parent="lQnL0QaqAJkKP_tVyNBw-53">
          <mxGeometry y="60" width="180" height="30" as="geometry" />
        </mxCell>
        <mxCell id="lQnL0QaqAJkKP_tVyNBw-58" value="" style="shape=partialRectangle;connectable=0;fillColor=none;top=0;left=0;bottom=0;right=0;editable=1;overflow=hidden;whiteSpace=wrap;html=1;" vertex="1" parent="lQnL0QaqAJkKP_tVyNBw-57">
          <mxGeometry width="30" height="30" as="geometry">
            <mxRectangle width="30" height="30" as="alternateBounds" />
          </mxGeometry>
        </mxCell>
        <mxCell id="lQnL0QaqAJkKP_tVyNBw-59" value="codAutorizacao" style="shape=partialRectangle;connectable=0;fillColor=none;top=0;left=0;bottom=0;right=0;align=left;spacingLeft=6;overflow=hidden;whiteSpace=wrap;html=1;" vertex="1" parent="lQnL0QaqAJkKP_tVyNBw-57">
          <mxGeometry x="30" width="150" height="30" as="geometry">
            <mxRectangle width="150" height="30" as="alternateBounds" />
          </mxGeometry>
        </mxCell>
        <mxCell id="lQnL0QaqAJkKP_tVyNBw-60" value="" style="shape=tableRow;horizontal=0;startSize=0;swimlaneHead=0;swimlaneBody=0;fillColor=none;collapsible=0;dropTarget=0;points=[[0,0.5],[1,0.5]];portConstraint=eastwest;top=0;left=0;right=0;bottom=0;" vertex="1" parent="lQnL0QaqAJkKP_tVyNBw-53">
          <mxGeometry y="90" width="180" height="30" as="geometry" />
        </mxCell>
        <mxCell id="lQnL0QaqAJkKP_tVyNBw-61" value="" style="shape=partialRectangle;connectable=0;fillColor=none;top=0;left=0;bottom=0;right=0;editable=1;overflow=hidden;whiteSpace=wrap;html=1;" vertex="1" parent="lQnL0QaqAJkKP_tVyNBw-60">
          <mxGeometry width="30" height="30" as="geometry">
            <mxRectangle width="30" height="30" as="alternateBounds" />
          </mxGeometry>
        </mxCell>
        <mxCell id="lQnL0QaqAJkKP_tVyNBw-62" value="empresa" style="shape=partialRectangle;connectable=0;fillColor=none;top=0;left=0;bottom=0;right=0;align=left;spacingLeft=6;overflow=hidden;whiteSpace=wrap;html=1;" vertex="1" parent="lQnL0QaqAJkKP_tVyNBw-60">
          <mxGeometry x="30" width="150" height="30" as="geometry">
            <mxRectangle width="150" height="30" as="alternateBounds" />
          </mxGeometry>
        </mxCell>
        <mxCell id="lQnL0QaqAJkKP_tVyNBw-63" value="" style="shape=tableRow;horizontal=0;startSize=0;swimlaneHead=0;swimlaneBody=0;fillColor=none;collapsible=0;dropTarget=0;points=[[0,0.5],[1,0.5]];portConstraint=eastwest;top=0;left=0;right=0;bottom=0;" vertex="1" parent="lQnL0QaqAJkKP_tVyNBw-53">
          <mxGeometry y="120" width="180" height="30" as="geometry" />
        </mxCell>
        <mxCell id="lQnL0QaqAJkKP_tVyNBw-64" value="" style="shape=partialRectangle;connectable=0;fillColor=none;top=0;left=0;bottom=0;right=0;editable=1;overflow=hidden;whiteSpace=wrap;html=1;" vertex="1" parent="lQnL0QaqAJkKP_tVyNBw-63">
          <mxGeometry width="30" height="30" as="geometry">
            <mxRectangle width="30" height="30" as="alternateBounds" />
          </mxGeometry>
        </mxCell>
        <mxCell id="lQnL0QaqAJkKP_tVyNBw-65" value="localGeografico" style="shape=partialRectangle;connectable=0;fillColor=none;top=0;left=0;bottom=0;right=0;align=left;spacingLeft=6;overflow=hidden;whiteSpace=wrap;html=1;" vertex="1" parent="lQnL0QaqAJkKP_tVyNBw-63">
          <mxGeometry x="30" width="150" height="30" as="geometry">
            <mxRectangle width="150" height="30" as="alternateBounds" />
          </mxGeometry>
        </mxCell>
        <mxCell id="4Fr1TrprjX_Hmh6AI1Kk-1" style="edgeStyle=orthogonalEdgeStyle;rounded=0;orthogonalLoop=1;jettySize=auto;html=1;entryX=0;entryY=0.5;entryDx=0;entryDy=0;endArrow=ERoneToMany;endFill=0;startArrow=ERmandOne;startFill=0;exitX=0;exitY=0.5;exitDx=0;exitDy=0;" edge="1" parent="1" source="lQnL0QaqAJkKP_tVyNBw-15" target="lQnL0QaqAJkKP_tVyNBw-11">
          <mxGeometry relative="1" as="geometry">
            <mxPoint x="-510" y="785" as="sourcePoint" />
            <Array as="points">
              <mxPoint x="-543" y="695" />
              <mxPoint x="-543" y="630" />
              <mxPoint x="-780" y="630" />
              <mxPoint x="-780" y="815" />
            </Array>
          </mxGeometry>
        </mxCell>
        <mxCell id="OrdLGmlQ31TYxrV25o3v-1" style="edgeStyle=orthogonalEdgeStyle;rounded=0;orthogonalLoop=1;jettySize=auto;html=1;exitX=0;exitY=0.5;exitDx=0;exitDy=0;entryX=1;entryY=0.5;entryDx=0;entryDy=0;startArrow=ERoneToMany;startFill=0;endArrow=ERmandOne;endFill=0;" edge="1" parent="1" source="lQnL0QaqAJkKP_tVyNBw-37" target="lQnL0QaqAJkKP_tVyNBw-15">
          <mxGeometry relative="1" as="geometry">
            <Array as="points">
              <mxPoint x="-300" y="785" />
              <mxPoint x="-300" y="695" />
            </Array>
          </mxGeometry>
        </mxCell>
        <mxCell id="OrdLGmlQ31TYxrV25o3v-5" style="edgeStyle=orthogonalEdgeStyle;rounded=0;orthogonalLoop=1;jettySize=auto;html=1;exitX=0;exitY=0.5;exitDx=0;exitDy=0;entryX=0;entryY=0.5;entryDx=0;entryDy=0;startArrow=ERzeroToMany;startFill=0;endArrow=ERzeroToOne;endFill=0;strokeColor=#000000;" edge="1" parent="1" source="lQnL0QaqAJkKP_tVyNBw-50" target="lQnL0QaqAJkKP_tVyNBw-54">
          <mxGeometry relative="1" as="geometry">
            <Array as="points">
              <mxPoint x="-510" y="975" />
              <mxPoint x="-510" y="840" />
              <mxPoint x="-780" y="840" />
              <mxPoint x="-780" y="895" />
            </Array>
          </mxGeometry>
        </mxCell>
        <mxCell id="OrdLGmlQ31TYxrV25o3v-9" style="edgeStyle=orthogonalEdgeStyle;rounded=0;orthogonalLoop=1;jettySize=auto;html=1;exitX=0;exitY=0.5;exitDx=0;exitDy=0;entryX=0;entryY=0.5;entryDx=0;entryDy=0;endArrow=ERmandOne;endFill=0;startArrow=ERzeroToMany;startFill=0;strokeColor=#000000;" edge="1" parent="1" source="OrdLGmlQ31TYxrV25o3v-6" target="lQnL0QaqAJkKP_tVyNBw-28">
          <mxGeometry relative="1" as="geometry">
            <Array as="points">
              <mxPoint x="-290" y="1005" />
              <mxPoint x="-290" y="695" />
            </Array>
          </mxGeometry>
        </mxCell>
        <mxCell id="9bmH8-nR4NWNgXwJUcmB-6" style="edgeStyle=orthogonalEdgeStyle;rounded=0;orthogonalLoop=1;jettySize=auto;html=1;strokeColor=#B8B8B8;" edge="1" parent="1" source="9bmH8-nR4NWNgXwJUcmB-4" target="9bmH8-nR4NWNgXwJUcmB-1">
          <mxGeometry relative="1" as="geometry">
            <Array as="points">
              <mxPoint x="-670" y="620" />
            </Array>
          </mxGeometry>
        </mxCell>
        <mxCell id="9bmH8-nR4NWNgXwJUcmB-4" value="&lt;font style=&quot;font-size: 6px;&quot;&gt;O enunciado não refere titular... Mas um cliente pode ser titular de várias contas&lt;/font&gt;" style="shape=note;size=20;whiteSpace=wrap;html=1;" vertex="1" parent="1">
          <mxGeometry x="-820" y="568.5" width="80" height="51.5" as="geometry" />
        </mxCell>
      </root>
    </mxGraphModel>
  </diagram>
</mxfile>
